G04 EasyPC Gerber Version 20.0.2 Build 4112 *
%FSLAX35Y35*%
%MOIN*%
%ADD28R,0.02800X0.03500*%
%ADD116R,0.05906X0.05906*%
%ADD20R,0.06800X0.06800*%
%ADD119R,0.07600X0.07600*%
%ADD110C,0.00100*%
%ADD12C,0.01000*%
%ADD109C,0.01200*%
%ADD76C,0.02500*%
%ADD120C,0.06400*%
%ADD18O,0.11000X0.06000*%
%ADD117R,0.08000X0.02500*%
%ADD29R,0.03500X0.02800*%
%ADD111R,0.03071X0.03071*%
%ADD118R,0.07874X0.04921*%
%ADD113C,0.11024*%
%ADD115C,0.12992*%
%ADD112C,0.13780*%
%ADD124C,0.15748*%
%ADD114C,0.22047*%
X0Y0D02*
D02*
D12*
X14748Y60550D02*
X12947D01*
X15448Y50600D02*
X13648D01*
X15648Y59300D02*
Y57502D01*
X18148Y47900D02*
Y46100D01*
Y53300D02*
Y55100D01*
X20848Y50600D02*
X22648D01*
X21140Y58285D02*
Y56486D01*
Y60356D02*
Y62155D01*
X22176Y59320D02*
X23975D01*
X54120Y66880D02*
X52321D01*
X55156Y65844D02*
Y64045D01*
Y67915D02*
Y69714D01*
X55448Y75600D02*
X53648D01*
X58148Y72900D02*
Y71100D01*
X60648Y66900D02*
Y68698D01*
X65448Y23100D02*
X63648D01*
X68148Y20400D02*
Y18600D01*
Y25800D02*
Y27600D01*
X70848Y23100D02*
X72648D01*
X72948Y165600D02*
X71148D01*
X72948Y185600D02*
X71148D01*
X72948Y205600D02*
X71148D01*
X74120Y159380D02*
X72321D01*
X74120Y179380D02*
X72321D01*
X74120Y199380D02*
X72321D01*
X75156Y158344D02*
Y156545D01*
Y178344D02*
Y176545D01*
Y198344D02*
Y196545D01*
X76191Y159380D02*
X77991D01*
X76191Y179380D02*
X77991D01*
X76191Y199380D02*
X77991D01*
X78348Y165600D02*
X80148D01*
X78348Y185600D02*
X80148D01*
X78348Y205600D02*
X80148D01*
X115448Y213100D02*
X113648D01*
X115448Y223100D02*
X113648D01*
X118148Y210400D02*
Y208600D01*
Y215800D02*
Y217600D01*
Y220400D02*
Y218600D01*
Y225800D02*
Y227600D01*
X120848Y213100D02*
X122648D01*
X120848Y223100D02*
X122648D01*
X134309Y133073D02*
Y134872D01*
X138148Y30600D02*
X136349D01*
X143148Y28100D02*
Y26301D01*
Y33100D02*
Y34899D01*
X148148Y30600D02*
X149947D01*
X154309Y116473D02*
Y114675D01*
X168148Y70600D02*
X166349D01*
X168148Y80600D02*
X166349D01*
X168148Y90600D02*
X166349D01*
X173148Y68100D02*
Y66301D01*
Y73100D02*
Y74899D01*
Y78100D02*
Y76301D01*
Y88100D02*
Y86301D01*
Y93100D02*
Y94899D01*
X174309Y133073D02*
Y134872D01*
X178148Y70600D02*
X179947D01*
X178148Y80600D02*
X179947D01*
X178148Y90600D02*
X179947D01*
X190548Y85400D02*
Y83600D01*
Y88100D02*
X198148D01*
X190948Y95550D02*
X189148D01*
X190948Y100650D02*
X189148D01*
X191648Y108100D02*
X189848D01*
X191848Y94300D02*
Y92502D01*
Y95550D02*
X196848D01*
X191848D02*
Y89400D01*
X190548Y88100*
X191848Y100650D02*
X194348D01*
X191848Y101900D02*
Y103698D01*
X194309Y116473D02*
Y114675D01*
X194348Y100650D02*
X196848D01*
X194348Y105400D02*
Y103600D01*
Y108100D02*
Y100650D01*
Y110800D02*
Y112600D01*
X196848Y94300D02*
Y92502D01*
Y95550D02*
Y89400D01*
X198148Y88100*
X196848Y101900D02*
Y103698D01*
X197048Y108100D02*
X198848D01*
X197748Y95550D02*
X199550D01*
X197748Y100650D02*
X199550D01*
X198148Y85400D02*
Y83600D01*
X204309Y133073D02*
Y134872D01*
X212948Y78100D02*
X211148D01*
X212948D02*
X211148D01*
X215648Y75400D02*
Y73600D01*
Y75400D02*
Y73600D01*
Y78100D02*
Y70650D01*
X215698Y70600*
X215648Y80800D02*
Y82600D01*
Y80800D02*
Y82600D01*
X215698Y71500D02*
Y73301D01*
Y71500D02*
Y73301D01*
X216948Y70600D02*
X218746D01*
X216948D02*
X218746D01*
X218348Y78100D02*
X220148D01*
X218348D02*
X220148D01*
X220448Y30600D02*
X218648D01*
X220448D02*
X218648D01*
X222348Y80600D02*
X220550D01*
X222348D02*
X220550D01*
X222348Y85600D02*
X220550D01*
X223148Y27900D02*
Y26100D01*
Y27900D02*
Y26100D01*
Y30600D02*
X230648D01*
X223148Y33300D02*
Y35100D01*
Y33300D02*
Y35100D01*
X223598Y79700D02*
Y77899D01*
Y79700D02*
Y77899D01*
Y86500D02*
Y88301D01*
X223648Y38100D02*
X221849D01*
X223648D02*
X221849D01*
X223648Y73100D02*
X221849D01*
X223648D02*
X221849D01*
X227148Y37350D02*
Y35549D01*
Y37350D02*
Y35549D01*
Y73850D02*
Y75651D01*
Y73850D02*
Y75651D01*
X230648Y27900D02*
Y26100D01*
Y27900D02*
Y26100D01*
Y33300D02*
Y35100D01*
Y33300D02*
Y35100D01*
Y38100D02*
X232447D01*
X230648D02*
X232447D01*
X233348Y30600D02*
X235148D01*
X233348D02*
X235148D01*
X237948Y80600D02*
X236148D01*
X237948D02*
X236148D01*
X237948Y88100D02*
X236148D01*
X237948D02*
X236148D01*
X240648Y77900D02*
Y76100D01*
Y77900D02*
Y76100D01*
Y80600D02*
Y88100D01*
Y90800D02*
Y92600D01*
Y90800D02*
Y92600D01*
X242948Y30600D02*
X241148D01*
X242948D02*
X241148D01*
X245648Y27900D02*
Y26100D01*
Y27900D02*
Y26100D01*
Y33300D02*
Y35100D01*
Y33300D02*
Y35100D01*
Y38100D02*
X243849D01*
X245648D02*
X243849D01*
X246360Y85600D02*
X244561D01*
X246360D02*
X244561D01*
X247610Y79700D02*
Y77899D01*
Y79700D02*
Y77899D01*
Y80600D02*
X240648D01*
X247610Y85600D02*
Y80600D01*
Y86500D02*
Y88301D01*
Y86500D02*
Y88301D01*
X248348Y30600D02*
X250148D01*
X248348D02*
X250148D01*
X249148Y37350D02*
Y35549D01*
Y37350D02*
Y35549D01*
Y73100D02*
X250348D01*
Y75600*
X252648Y38100D02*
X254447D01*
X252648Y73100D02*
X254447D01*
X252710Y79700D02*
Y77899D01*
Y85600D02*
Y80600D01*
Y86500D02*
Y88301D01*
X253960Y80600D02*
X255760D01*
X253960Y85600D02*
X255760D01*
X254309Y133073D02*
Y134872D01*
X268399Y68218D02*
X266599D01*
X268399Y82982D02*
X266599D01*
X271836Y66257D02*
Y64458D01*
Y70179D02*
Y71978D01*
Y81021D02*
Y79222D01*
Y84943D02*
Y86742D01*
X273195Y41663D02*
X271396D01*
X273195Y49537D02*
X271396D01*
X273392Y203100D02*
X271592D01*
X274309Y133073D02*
Y134872D01*
X275273Y68218D02*
X277073D01*
X275273Y82982D02*
X277073D01*
X275648Y39210D02*
Y37411D01*
Y51990D02*
Y53789D01*
X278101Y41663D02*
X279900D01*
X278101Y49537D02*
X279900D01*
X280448Y63100D02*
X278648D01*
X282248Y73050D02*
X280447D01*
X282248Y78150D02*
X280447D01*
X283148Y60400D02*
Y58600D01*
Y65800D02*
Y67600D01*
Y71800D02*
Y70002D01*
Y79400D02*
Y81198D01*
X283916Y192576D02*
Y190776D01*
Y213624D02*
Y215424D01*
X284048Y78150D02*
X285849D01*
X285848Y63100D02*
X287648D01*
X294439Y203100D02*
X296239D01*
X310448Y160600D02*
X308648D01*
X310698Y149700D02*
Y147899D01*
Y151500D02*
Y153301D01*
X311948Y150600D02*
X313746D01*
X313148Y157900D02*
Y156100D01*
Y163300D02*
Y165100D01*
X315848Y160600D02*
X317648D01*
D02*
D18*
X143148Y30600D03*
Y40600D03*
Y50600D03*
Y60600D03*
Y70600D03*
Y80600D03*
Y90600D03*
X173148Y30600D03*
Y40600D03*
Y50600D03*
Y60600D03*
Y70600D03*
Y80600D03*
Y90600D03*
D02*
D20*
X33148Y23100D03*
Y150600D03*
Y160600D03*
Y170600D03*
Y180600D03*
Y190600D03*
Y200600D03*
X43148Y23100D03*
X53148D03*
D02*
D28*
X15648Y60550D03*
Y65650D03*
X25648Y45550D03*
Y50650D03*
X50648Y45550D03*
Y50650D03*
X60648Y60550D03*
Y65650D03*
X191848Y95550D03*
Y100650D03*
X196848Y95550D03*
Y100650D03*
X283148Y73050D03*
Y78150D03*
D02*
D29*
X55063Y170600D03*
Y180600D03*
X55346Y150600D03*
Y160600D03*
X55494Y190600D03*
Y200600D03*
X60163Y170600D03*
Y180600D03*
X60446Y150600D03*
Y160600D03*
X60594Y190600D03*
Y200600D03*
X210598Y58100D03*
Y70600D03*
X215698Y58100D03*
Y70600D03*
X223598Y80600D03*
Y85600D03*
X228698Y80600D03*
Y85600D03*
X247610Y80600D03*
Y85600D03*
X252710Y80600D03*
Y85600D03*
X305598Y150600D03*
X310698D03*
D02*
D76*
X15648Y60550D02*
Y53100D01*
X18148Y50600*
X21140Y59320D02*
Y53592D01*
X18148Y50600*
X21140Y66880D02*
X14428D01*
X8148Y60600*
Y33100*
X33148Y8100*
X285648*
X305648Y28100*
Y95600*
X294309Y106939*
Y108100*
X25648Y45550D02*
X33148D01*
X25648Y50650D02*
Y51100D01*
X30148Y55600*
Y62608*
X30156Y62616*
Y63100*
X50648Y45550D02*
X43148D01*
X50648Y50650D02*
Y51100D01*
X46148Y55600*
Y62608*
X46140Y62616*
Y63100*
X55063Y170600D02*
X15648D01*
X55063Y180600D02*
X15648D01*
X55156Y59320D02*
X60648D01*
Y18100*
X63148Y15600*
X280648*
X298148Y33100*
Y86761*
X284309Y100600*
Y108100*
X55156Y66880D02*
Y72608D01*
X58148Y75600*
X55346Y150600D02*
X15648D01*
X55346Y160600D02*
X15648D01*
X55494Y190600D02*
X15648D01*
X55494Y200600D02*
X15648D01*
X60163Y175600D02*
Y170600D01*
Y180600D02*
Y175600D01*
X60446Y155600D02*
Y150600D01*
Y160600D02*
Y155600D01*
X60594Y195600D02*
Y190600D01*
Y200600D02*
Y195600D01*
X60648Y65650D02*
Y73100D01*
X58148Y75600*
X66140Y155600D02*
X60446D01*
X66140Y175600D02*
X60163D01*
X66140Y195600D02*
X60594D01*
X75156Y159380D02*
Y165108D01*
X75648Y165600*
X75156Y179380D02*
Y185108D01*
X75648Y185600*
X75156Y199380D02*
Y205108D01*
X75648Y205600*
X143148Y40600D02*
X125648D01*
X70648Y95600*
Y138100*
X83148Y150600*
Y168100*
X79448Y171800*
X75156*
Y171820*
X143148Y60600D02*
X133148D01*
X130648Y58100*
Y48100*
X133148Y45600*
X138148*
X143148Y70600D02*
X108148D01*
X78148Y100600*
Y135600*
X90648Y148100*
Y180600*
X79448Y191800*
X75156*
Y191820*
X143148Y90600D02*
X133148D01*
X130648Y88100*
Y78100*
X133148Y75600*
X138148*
X148148Y45600D02*
X158148D01*
X163148Y40600*
X173148*
X148148Y75600D02*
X153148D01*
X155648Y73100*
Y63100*
X153148Y60600*
X143148*
X164309Y108100D02*
Y108161D01*
X155648Y99500*
Y83100*
X153148Y80600*
X143148*
X173148Y30600D02*
X163148D01*
X155648Y23100*
X130648*
X63148Y90600*
Y141792*
X73148Y151792*
Y151800*
X75156Y151792*
Y151820*
X174309Y108100D02*
Y101761D01*
X170648Y98100*
X165648*
X163148Y95600*
Y55600*
X158148Y50600*
X143148*
X184309Y108100D02*
Y54261D01*
X180648Y50600*
X173148*
X204348Y108100D02*
Y85600D01*
X203148Y84400*
Y60600*
X205648Y58100*
X210598*
Y70600D02*
Y68150D01*
X213148Y65600*
X218148*
X220648Y68100*
X227148*
X214348Y108100D02*
Y88100D01*
X208148Y81900*
Y75600*
X210598Y73150*
Y70600*
X227148Y58100D02*
X215698D01*
X249148D02*
X255648D01*
X258148Y55600*
Y25600*
X255648Y23100*
X198148*
X180648Y40600*
X173148*
X249148Y68100D02*
X271718D01*
X271836Y68218*
X283148Y63100D02*
Y73050D01*
X303148Y160600D02*
Y145600D01*
X298148Y140600*
X234309*
D02*
D109*
X16348Y600D02*
G75*
G03X600Y16348I-15748D01*
G01*
Y535840*
G75*
G03X16348Y551588J15748*
G01*
X339083*
G75*
G03X354831Y535840I15748*
G01*
Y16348*
G75*
G03X339083Y600J-15748*
G01*
X16348*
X138148Y45600D02*
X148148D01*
X138148Y75600D02*
X148148D01*
X227148Y63100D02*
X230148D01*
X233148Y66100*
Y76100*
X228698Y80550*
Y85600*
D02*
D110*
X18248Y310600D02*
Y260600D01*
X52148*
Y310600*
X49648Y313100*
X20748*
X18248Y310600*
G36*
Y260600*
X52148*
Y310600*
X49648Y313100*
X20748*
X18248Y310600*
G37*
X80648Y69907D02*
X61552Y89003D01*
G75*
G02X60891Y90600I1596J1597*
G01*
Y130357*
X48148Y143100*
X20648*
X16975Y146773*
G75*
G02X11598Y150600I-1327J3827*
G01*
G75*
G02X15648Y154650I4050*
G01*
Y156550*
G75*
G02X11598Y160600J4050*
G01*
G75*
G02X15648Y164650I4050*
G01*
Y166550*
G75*
G02X11598Y170600J4050*
G01*
G75*
G02X15648Y174650I4050*
G01*
Y176550*
G75*
G02X11598Y180600J4050*
G01*
G75*
G02X15648Y184650I4050*
G01*
Y186550*
G75*
G02X11598Y190600J4050*
G01*
G75*
G02X15648Y194650I4050*
G01*
Y196550*
G75*
G02X11598Y200600J4050*
G01*
G75*
G02X15648Y204650I4050*
G01*
Y205600*
X20648Y210600*
X108148*
X113148Y205600*
X120648*
X125648Y210600*
Y225600*
X120648Y230600*
X113148*
X108148Y225600*
X5648*
X2050Y222002*
Y86698*
X10648Y78100*
X54962*
G75*
G02X62081Y74636I3187J-2499*
G01*
X62133Y74585*
G75*
G02X62700Y73548I-1485J-1485*
G01*
X63148Y73100*
Y18570*
X64018Y17700*
X72748*
X80648Y25600*
Y69907*
X114098Y213100D02*
G75*
G02X122198I4050D01*
G01*
G75*
G02X114098I-4050*
G01*
Y223100D02*
G75*
G02X122198I4050D01*
G01*
G75*
G02X114098I-4050*
G01*
X64098Y23100D02*
G75*
G02X72198I4050D01*
G01*
G75*
G02X64098I-4050*
G01*
X78148D02*
G36*
X72198D01*
G75*
G02X64098I-4050*
G01*
X63148*
Y18570*
X63968Y17750*
X72798*
X78148Y23100*
G37*
X125598Y210550D02*
G36*
Y213100D01*
X122198*
G75*
G02X114098I-4050*
G01*
X2100*
Y86648*
X10648Y78100*
X54962*
G75*
G02X62198Y75600I3186J-2500*
G01*
G75*
G02X62081Y74636I-4049J0*
G01*
X62133Y74585*
G75*
G02X62700Y73548I-1488J-1486*
G01*
X63148Y73100*
Y23100*
X64098*
G75*
G02X72198I4050*
G01*
X78148*
X80648Y25600*
Y69907*
X61552Y89003*
G75*
G02X60891Y90600I1596J1597*
G01*
Y130357*
X48148Y143100*
X20648*
X16975Y146773*
G75*
G02X11598Y150600I-1326J3827*
G01*
G75*
G02X15648Y154650I4050*
G01*
Y156550*
G75*
G02X11598Y160600J4050*
G01*
G75*
G02X15648Y164650I4050*
G01*
Y166550*
G75*
G02X11598Y170600J4050*
G01*
G75*
G02X15648Y174650I4050*
G01*
Y176550*
G75*
G02X11598Y180600J4050*
G01*
G75*
G02X15648Y184650I4050*
G01*
Y186550*
G75*
G02X11598Y190600J4050*
G01*
G75*
G02X15648Y194650I4050*
G01*
Y196550*
G75*
G02X11598Y200600J4050*
G01*
G75*
G02X15648Y204650I4050*
G01*
Y205600*
X20648Y210600*
X108148*
X113148Y205600*
X120648*
X125598Y210550*
G37*
X3148Y223100D02*
G36*
X2100Y222052D01*
Y213100*
X114098*
G75*
G02X122198I4050*
G01*
X125598*
Y223100*
X122198*
G75*
G02X114098I-4050*
G01*
X3148*
G37*
X125598Y225650D02*
G36*
X120698Y230550D01*
X113098*
X108148Y225600*
X5648*
X3148Y223100*
X114098*
G75*
G02X122198I4050*
G01*
X125598*
Y225650*
G37*
X129447Y130285D02*
Y129285D01*
X139447*
Y130285*
X129447*
G36*
Y129285*
X139447*
Y130285*
X129447*
G37*
X133849Y134801D02*
Y124801D01*
X134849*
Y134801*
X133849*
G36*
Y124801*
X134849*
Y134801*
X133849*
G37*
X149349Y120100D02*
Y119100D01*
X159349*
Y120100*
X149349*
G36*
Y119100*
X159349*
Y120100*
X149349*
G37*
X153849Y125002D02*
Y115002D01*
X154849*
Y125002*
X153849*
G36*
Y115002*
X154849*
Y125002*
X153849*
G37*
X169447Y130285D02*
Y129285D01*
X179447*
Y130285*
X169447*
G36*
Y129285*
X179447*
Y130285*
X169447*
G37*
X173849Y134801D02*
Y124801D01*
X174849*
Y134801*
X173849*
G36*
Y124801*
X174849*
Y134801*
X173849*
G37*
X189349Y120301D02*
Y119301D01*
X199349*
Y120301*
X189349*
G36*
Y119301*
X199349*
Y120301*
X189349*
G37*
X189447Y124801D02*
Y114801D01*
X199349*
Y124801*
X189447*
G36*
Y114801*
X199349*
Y124801*
X189447*
G37*
X199349Y130285D02*
Y129285D01*
X209349*
Y130285*
X199349*
G36*
Y129285*
X209349*
Y130285*
X199349*
G37*
X210248Y81030D02*
Y76470D01*
X212083Y74635*
G75*
G02X212698Y73150I-1485J-1485*
G01*
Y72850*
X218298*
Y68719*
X219163Y69585*
G75*
G02X220650Y70200I1485J-1485*
G01*
X222148*
Y71600*
X222298*
Y75198*
X231698*
Y75499*
X228847Y78350*
X220998*
Y82850*
X227248*
Y83350*
X220998*
Y84200*
X218150*
G75*
G02X217512Y84464I-2J900*
G01*
X215596Y86379*
X210248Y81030*
X211598Y78100D02*
G75*
G02X219698I4050D01*
G01*
G75*
G02X211598I-4050*
G01*
X229097D02*
G36*
X219698D01*
G75*
G02X211598I-4050*
G01*
X210298*
Y76420*
X212083Y74635*
G75*
G02X212698Y73150I-1487J-1485*
G01*
Y72850*
X218298*
Y68769*
X218348*
X219163Y69585*
G75*
G02X220650Y70200I1485J-1486*
G01*
X222148*
Y71600*
X222298*
Y75198*
X231648*
Y75549*
X229097Y78100*
G37*
G36*
X228847Y78350*
X220998*
Y82850*
X227248*
Y83350*
X220998*
Y84200*
X218150*
G75*
G02X217512Y84464I-2J899*
G01*
X215646Y86329*
X215546*
X210298Y81080*
Y78100*
X211598*
G75*
G02X219698I4050*
G01*
X229097*
G37*
X218148Y31100D02*
Y30100D01*
X223148*
Y31100*
X218148*
G36*
Y30100*
X223148*
Y31100*
X218148*
G37*
X222648Y30600D02*
Y25600D01*
X223648*
Y30600*
X222648*
G36*
Y25600*
X223648*
Y30600*
X222648*
G37*
X223148Y83100D02*
Y80600D01*
X224148*
Y83100*
X223148*
G36*
Y80600*
X224148*
Y83100*
X223148*
G37*
X228148Y48600D02*
X233148D01*
Y47600*
X228148*
Y48600*
G36*
X233148*
Y47600*
X228148*
Y48600*
G37*
Y78350D02*
X220998D01*
Y82850*
X224148*
Y83350*
X220998*
Y83600*
X213148*
X210648Y81100*
Y76070*
X212083Y74635*
G75*
G02X212698Y73150I-1485J-1485*
G01*
Y72850*
X218298*
Y69600*
X219178*
G75*
G02X220650Y70200I1470J-1500*
G01*
X222148*
Y71600*
X222298*
Y75198*
X228148*
Y78350*
X211598Y78100D02*
G75*
G02X219698I4050D01*
G01*
G75*
G02X211598I-4050*
G01*
X228098Y75198D02*
G36*
Y78100D01*
X219698*
G75*
G02X211598I-4050*
G01*
X210698*
Y76020*
X212083Y74635*
G75*
G02X212698Y73150I-1487J-1485*
G01*
Y72850*
X218298*
Y69650*
X219231*
G75*
G02X220650Y70200I1418J-1553*
G01*
X222148*
Y71600*
X222298*
Y75198*
X228098*
G37*
X220998Y83550D02*
G36*
X213098D01*
X210698Y81150*
Y78100*
X211598*
G75*
G02X219698I4050*
G01*
X228098*
Y78350*
X220998*
Y82850*
X224148*
Y83350*
X220998*
Y83550*
G37*
X230148Y30600D02*
Y25600D01*
X231148*
Y30600*
X230148*
G36*
Y25600*
X231148*
Y30600*
X230148*
G37*
Y83350D02*
Y82850D01*
X231298*
Y80001*
X234172Y77127*
G75*
G02X234598Y76100I-1024J-1027*
G01*
Y66100*
G75*
G02X234172Y65073I-1450*
G01*
X232148Y63049*
Y48650*
X233148*
G75*
G02X233198Y48600J-50*
G01*
Y47600*
G75*
G02X233148Y47550I-50*
G01*
X232148*
Y39600*
X231998*
Y36002*
X222298*
Y39600*
X222148*
Y56000*
X218298*
Y55850*
X207998*
Y56000*
X205650*
G75*
G02X204163Y56615I-3J2100*
G01*
X201663Y59115*
G75*
G02X201048Y60600I1485J1485*
G01*
Y84400*
G75*
G02X201663Y85885I2100*
G01*
X202248Y86470*
Y99000*
X199097*
Y92950*
X194597*
Y99000*
X194097*
Y92950*
X189597*
Y99000*
X186409*
Y54261*
G75*
G02X185794Y52776I-2100*
G01*
X182133Y49115*
G75*
G02X180646Y48500I-1485J1485*
G01*
X178875*
G75*
G02X175648Y46750I-3227J2100*
G01*
X170648*
G75*
G02Y54450J3850*
G01*
X175648*
G75*
G02X178875Y52700J-3850*
G01*
X179778*
X182209Y55131*
Y85889*
X179012Y82691*
G75*
G02X178928Y82616I-641J631*
G01*
G75*
G02X175648Y76750I-3280J-2016*
G01*
X170648*
G75*
G02X167146Y82200J3850*
G01*
X165648*
G75*
G02X165248Y82294J900*
G01*
Y55600*
G75*
G02X164633Y54115I-2100*
G01*
X159633Y49115*
G75*
G02X158146Y48500I-1485J1485*
G01*
X148875*
G75*
G02X148181Y47700I-3228J2100*
G01*
X158146*
G75*
G02X159633Y47085I3J-2100*
G01*
X164018Y42700*
X167421*
G75*
G02X170648Y44450I3227J-2100*
G01*
X175648*
G75*
G02X178875Y42700J-3850*
G01*
X180646*
G75*
G02X182133Y42085I3J-2100*
G01*
X199018Y25200*
X254778*
X256048Y26470*
Y39301*
X253998*
Y36002*
X244298*
Y39301*
X244246*
Y42550*
X243148*
G75*
G02X243098Y42600J50*
G01*
Y43600*
G75*
G02X243148Y43650I50*
G01*
X244246*
Y47550*
X243148*
G75*
G02X243098Y47600J50*
G01*
Y48600*
G75*
G02X243148Y48650I50*
G01*
X244246*
Y62550*
X243148*
G75*
G02X243098Y62600J50*
G01*
Y63600*
G75*
G02X243148Y63650I50*
G01*
X244246*
Y72100*
X244298*
Y75198*
X248148*
Y76698*
G75*
G02Y76700I265J1*
G01*
Y76700*
G75*
G02X248412Y77336I900J0*
G01*
X249425Y78350*
X245010*
Y82850*
X251360*
Y83350*
X245010*
Y87850*
X248148*
Y95599*
G75*
G03X248147Y95600J1*
G01*
X238148*
X238148*
X233148Y90600*
Y85600*
X231298*
Y83350*
X230148*
X236598Y88100D02*
G75*
G02X244698I4050D01*
G01*
G75*
G02X242178Y84350I-4050*
G01*
G75*
G02X244698Y80600I-1530J-3750*
G01*
G75*
G02X236598I-4050*
G01*
G75*
G02X239119Y84350I4050*
G01*
G75*
G02X236598Y88100I1530J3750*
G01*
X241598Y30600D02*
G75*
G02X249698I4050D01*
G01*
G75*
G02X241598I-4050*
G01*
X226898Y32130D02*
G75*
G02X234698Y30600I3750J-1530D01*
G01*
G75*
G02X226898Y29070I-4050*
G01*
G75*
G02X219098Y30600I-3750J1530*
G01*
G75*
G02X226898Y32130I4050*
G01*
X194348Y89501D02*
G75*
G02X202198Y88100I3800J-1401D01*
G01*
G75*
G02X194348Y86699I-4050*
G01*
G75*
G02X186498Y88100I-3800J1401*
G01*
G75*
G02X194348Y89501I4050*
G01*
X175648Y64450D02*
G75*
G02Y56750J-3850D01*
G01*
X170648*
G75*
G02Y64450J3850*
G01*
X175648*
Y74450D02*
G75*
G02Y66750J-3850D01*
G01*
X170648*
G75*
G02Y74450J3850*
G01*
X175648*
X255998Y26420D02*
G36*
Y30600D01*
X249698*
G75*
G02X241598I-4050*
G01*
X234698*
G75*
G02X226898Y29070I-4050J0*
G01*
G75*
G02X219098Y30600I-3750J1530*
G01*
X193618*
X198968Y25250*
X254828*
X255998Y26420*
G37*
X244246Y60600D02*
G36*
X232148D01*
Y48650*
X233148*
G75*
G02X233198Y48600J-50*
G01*
Y48600*
Y47600*
Y47600*
G75*
G02X233148Y47550I-50*
G01*
X232148*
Y39600*
X231998*
Y36002*
X222298*
Y39600*
X222148*
Y56000*
X218298*
Y55850*
X207998*
Y56000*
X205650*
G75*
G02X204163Y56615I-2J2101*
G01*
X201663Y59115*
G75*
G02X201048Y60600I1487J1485*
G01*
X186409*
Y54261*
G75*
G02X185794Y52776I-2102J0*
G01*
X182133Y49115*
G75*
G02X180646Y48500I-1485J1486*
G01*
X178875*
G75*
G02X175648Y46750I-3227J2099*
G01*
X170648*
G75*
G02X166798Y50600J3850*
G01*
G75*
G02X170648Y54450I3850*
G01*
X175648*
G75*
G02X178875Y52700I0J-3851*
G01*
X179778*
X182209Y55131*
Y60600*
X179498*
G75*
G02X175648Y56750I-3850*
G01*
X170648*
G75*
G02X166798Y60600J3850*
G01*
X165248*
Y55600*
G75*
G02X164633Y54115I-2102J0*
G01*
X159633Y49115*
G75*
G02X158146Y48500I-1485J1486*
G01*
X148875*
G75*
G02X148231Y47744I-3231J2104*
G01*
Y47700*
X158146*
G75*
G02X159633Y47085I2J-2101*
G01*
X164018Y42700*
X167421*
G75*
G02X170648Y44450I3227J-2099*
G01*
X175648*
G75*
G02X178875Y42700I0J-3851*
G01*
X180646*
G75*
G02X182133Y42085I2J-2101*
G01*
X193618Y30600*
X219098*
G75*
G02X226898Y32130I4050J0*
G01*
G75*
G02X234698Y30600I3750J-1530*
G01*
X241598*
G75*
G02X249698I4050*
G01*
X255998*
Y39301*
X253998*
Y36002*
X244298*
Y39301*
X244246*
Y42550*
X243148*
G75*
G02X243098Y42600J50*
G01*
Y42600*
Y43600*
Y43600*
G75*
G02X243148Y43650I50*
G01*
X244246*
Y47550*
X243148*
G75*
G02X243098Y47600J50*
G01*
Y47600*
Y48600*
Y48600*
G75*
G02X243148Y48650I50*
G01*
X244246*
Y60600*
G37*
X182209Y70600D02*
G36*
X179498D01*
G75*
G02X175648Y66750I-3850*
G01*
X170648*
G75*
G02X166798Y70600J3850*
G01*
X165248*
Y60600*
X166798*
G75*
G02X170648Y64450I3850*
G01*
X175648*
G75*
G02X179498Y60600J-3850*
G01*
X182209*
Y70600*
G37*
X201048D02*
G36*
X186409D01*
Y60600*
X201048*
Y70600*
G37*
X244246D02*
G36*
X234598D01*
Y66100*
G75*
G02Y66099I-1961J0*
G01*
G75*
G02X234172Y65073I-1449*
G01*
X232148Y63049*
Y60600*
X244246*
Y62550*
X243148*
G75*
G02X243098Y62600J50*
G01*
Y62600*
Y63600*
Y63600*
G75*
G02X243148Y63650I50*
G01*
X244246*
Y70600*
G37*
X182209Y84350D02*
G36*
X180671D01*
X179012Y82691*
G75*
G02X178928Y82616I-670J663*
G01*
G75*
G02X179498Y80600I-3280J-2016*
G01*
G75*
G02X175648Y76750I-3850*
G01*
X170648*
G75*
G02X166798Y80600J3850*
G01*
G75*
G02X167146Y82200I3850J0*
G01*
X165648*
G75*
G02X165248Y82294I-1J896*
G01*
Y70600*
X166798*
G75*
G02X170648Y74450I3850*
G01*
X175648*
G75*
G02X179498Y70600J-3850*
G01*
X182209*
Y84350*
G37*
X201048Y70600D02*
G36*
Y84350D01*
X199678*
G75*
G02X196619I-1530J3750*
G01*
X192078*
G75*
G02X189019I-1530J3750*
G01*
X186409*
Y70600*
X201048*
G37*
X245010Y84350D02*
G36*
X242178D01*
G75*
G02X244698Y80600I-1530J-3750*
G01*
G75*
G02X236598I-4050*
G01*
G75*
G02X239119Y84350I4050*
G01*
X231298*
Y83350*
X230148*
Y82850*
X231298*
Y80001*
X234172Y77127*
G75*
G02X234598Y76101I-1022J-1026*
G01*
G75*
G02Y76100I-1961J0*
G01*
Y70600*
X244246*
Y72100*
X244298*
Y75198*
X248148*
Y76698*
Y76700*
Y76700*
Y76700*
G75*
G02X248412Y77336I898*
G01*
X249425Y78350*
X245010*
Y82850*
X251360*
Y83350*
X245010*
Y84350*
G37*
X202248Y98950D02*
G36*
X199097D01*
Y92950*
X194597*
Y98950*
X194097*
Y92950*
X189597*
Y98950*
X186409*
Y84350*
X189019*
G75*
G02X186498Y88100I1530J3750*
G01*
G75*
G02X194348Y89501I4050*
G01*
G75*
G02X202198Y88100I3800J-1401*
G01*
G75*
G02X199678Y84350I-4050*
G01*
X201048*
Y84400*
G75*
G02X201663Y85885I2102J0*
G01*
X202248Y86470*
Y98950*
G37*
X182209Y84350D02*
G36*
Y85889D01*
X180671Y84350*
X182209*
G37*
X196619D02*
G36*
G75*
G02X194348Y86699I1530J3750D01*
G01*
G75*
G02X192078Y84350I-3800J1401*
G01*
X196619*
G37*
X245010D02*
G36*
Y87850D01*
X248148*
Y95599*
G75*
G03X248148Y95600J1*
G01*
X248147*
X238148*
X238148*
X233148Y90600*
Y85600*
X231298*
Y84350*
X239119*
G75*
G02X236598Y88100I1530J3750*
G01*
G75*
G02X244698I4050*
G01*
G75*
G02X242178Y84350I-4050*
G01*
X245010*
G37*
X240648Y88600D02*
Y87600D01*
X245050*
Y88600*
X240648*
G36*
Y87600*
X245050*
Y88600*
X240648*
G37*
X243148Y43600D02*
X248148D01*
Y42600*
X243148*
Y43600*
G36*
X248148*
Y42600*
X243148*
Y43600*
G37*
Y48600D02*
X248148D01*
Y47600*
X243148*
Y48600*
G36*
X248148*
Y47600*
X243148*
Y48600*
G37*
Y63600D02*
X248148D01*
Y62600*
X243148*
Y63600*
G36*
X248148*
Y62600*
X243148*
Y63600*
G37*
X245148Y30600D02*
Y25600D01*
X246148*
Y30600*
X245148*
G36*
Y25600*
X246148*
Y30600*
X245148*
G37*
X249447Y130285D02*
Y129285D01*
X259447*
Y130285*
X249447*
G36*
Y129285*
X259447*
Y130285*
X249447*
G37*
X253148Y36002D02*
X244298D01*
Y39301*
X244246*
Y42550*
X243148*
G75*
G02X243098Y42600J50*
G01*
Y43600*
G75*
G02X243148Y43650I50*
G01*
X244246*
Y47550*
X243148*
G75*
G02X243098Y47600J50*
G01*
Y48600*
G75*
G02X243148Y48650I50*
G01*
X244246*
Y62550*
X243148*
G75*
G02X243098Y62600J50*
G01*
Y63600*
G75*
G02X243148Y63650I50*
G01*
X244246*
Y72100*
X244298*
Y75198*
X248148*
Y78350*
X245010*
Y82850*
X248148*
Y83350*
X245010*
Y87850*
X248148*
Y95600*
X238148*
X233148Y90600*
Y78151*
X234172Y77127*
G75*
G02X234598Y76100I-1024J-1027*
G01*
Y66100*
G75*
G02X234172Y65073I-1450*
G01*
X232148Y63049*
Y48650*
X233148*
G75*
G02X233198Y48600J-50*
G01*
Y47600*
G75*
G02X233148Y47550I-50*
G01*
X232148*
Y39600*
X231998*
Y36002*
X222298*
Y39600*
X222148*
X218148Y35600*
Y25600*
X253148*
Y36002*
X236598Y88100D02*
G75*
G02X244698I4050D01*
G01*
G75*
G02X242178Y84350I-4050*
G01*
G75*
G02X244698Y80600I-1530J-3750*
G01*
G75*
G02X236598I-4050*
G01*
G75*
G02X239119Y84350I4050*
G01*
G75*
G02X236598Y88100I1530J3750*
G01*
X241598Y30600D02*
G75*
G02X249698I4050D01*
G01*
G75*
G02X241598I-4050*
G01*
X226898Y32130D02*
G75*
G02X234698Y30600I3750J-1530D01*
G01*
G75*
G02X226898Y29070I-4050*
G01*
G75*
G02X219098Y30600I-3750J1530*
G01*
G75*
G02X226898Y32130I4050*
G01*
X218198Y30600D02*
G36*
Y25650D01*
X253098*
Y30600*
X249698*
G75*
G02X241598I-4050*
G01*
X234698*
G75*
G02X226898Y29070I-4050J0*
G01*
G75*
G02X219098Y30600I-3750J1530*
G01*
X218198*
G37*
X245010Y84350D02*
G36*
X242178D01*
G75*
G02X244698Y80600I-1530J-3750*
G01*
G75*
G02X236598I-4050*
G01*
G75*
G02X239119Y84350I4050*
G01*
X233148*
Y78151*
X234172Y77127*
G75*
G02X234598Y76101I-1022J-1026*
G01*
G75*
G02Y76100I-1961J0*
G01*
Y66100*
G75*
G02Y66099I-1961J0*
G01*
G75*
G02X234172Y65073I-1449*
G01*
X232148Y63049*
Y48650*
X233148*
G75*
G02X233198Y48600J-50*
G01*
Y48600*
Y47600*
Y47600*
G75*
G02X233148Y47550I-50*
G01*
X232148*
Y39600*
X231998*
Y36002*
X222298*
Y39600*
X222148*
X218198Y35650*
Y30600*
X219098*
G75*
G02X226898Y32130I4050J0*
G01*
G75*
G02X234698Y30600I3750J-1530*
G01*
X241598*
G75*
G02X249698I4050*
G01*
X253098*
Y36002*
X244298*
Y39301*
X244246*
Y42550*
X243148*
G75*
G02X243098Y42600J50*
G01*
Y42600*
Y43600*
Y43600*
G75*
G02X243148Y43650I50*
G01*
X244246*
Y47550*
X243148*
G75*
G02X243098Y47600J50*
G01*
Y47600*
Y48600*
Y48600*
G75*
G02X243148Y48650I50*
G01*
X244246*
Y62550*
X243148*
G75*
G02X243098Y62600J50*
G01*
Y62600*
Y63600*
Y63600*
G75*
G02X243148Y63650I50*
G01*
X244246*
Y72100*
X244298*
Y75198*
X248148*
Y78350*
X245010*
Y82850*
X248148*
Y83350*
X245010*
Y84350*
G37*
X248148Y95550D02*
G36*
X238098D01*
X233148Y90600*
Y84350*
X239119*
G75*
G02X236598Y88100I1530J3750*
G01*
G75*
G02X244698I4050*
G01*
G75*
G02X242178Y84350I-4050*
G01*
X245010*
Y87850*
X248148*
Y95550*
G37*
X269349Y130285D02*
Y129285D01*
X279349*
Y130285*
X269349*
G36*
Y129285*
X279349*
Y130285*
X269349*
G37*
X280648Y73600D02*
Y72600D01*
X285648*
Y73600*
X280648*
G36*
Y72600*
X285648*
Y73600*
X280648*
G37*
X288148Y71100D02*
X285648Y73600D01*
X285398*
Y70450*
X280898*
Y73600*
X263148*
X260648Y71100*
Y50600*
X263148Y48100*
X271845*
Y53340*
X279451*
Y48100*
X285648*
X288148Y50600*
Y71100*
X267050Y71529D02*
X276624D01*
Y64907*
X267050*
Y71529*
X279098Y63100D02*
G75*
G02X287198I4050D01*
G01*
G75*
G02X279098I-4050*
G01*
X288098Y50550D02*
G36*
Y63100D01*
X287198*
G75*
G02X279098I-4050*
G01*
X260698*
Y50550*
X263098Y48150*
X271845*
Y53340*
X279451*
Y48150*
X285698*
X288098Y50550*
G37*
X276624Y68218D02*
G36*
Y64907D01*
X267050*
Y68218*
X260698*
Y63100*
X279098*
G75*
G02X287198I4050*
G01*
X288098*
Y68218*
X276624*
G37*
X280898Y73550D02*
G36*
X263098D01*
X260698Y71150*
Y68218*
X267050*
Y71529*
X276624*
Y68218*
X288098*
Y71150*
X285698Y73550*
X285398*
Y70450*
X280898*
Y73550*
G37*
X288148Y109391D02*
Y110600D01*
X291123*
G75*
G02X297496I3186J-2500*
G01*
X298148*
X315648Y93100*
X348148*
X350648Y95600*
Y163100*
X348148Y165600*
X310648*
X308148Y163100*
Y152850*
X313298*
Y148350*
X308148*
Y143100*
X310648Y140600*
X330648*
X338148Y133100*
Y118100*
X330648Y110600*
X316648*
X310348Y116900*
Y125600*
X308959*
Y125124*
X299660*
Y125600*
X298959*
Y125124*
X289660*
Y125600*
X288959*
Y125124*
X279660*
Y125600*
X278959*
Y125124*
X269660*
Y125600*
X268959*
Y125124*
X259660*
Y125600*
X258959*
Y125124*
X249660*
Y125600*
X248959*
Y125124*
X239660*
Y125600*
X238959*
Y125124*
X229660*
Y125600*
X228959*
Y125124*
X219660*
Y125600*
X218959*
Y125124*
X209660*
Y125600*
X208959*
Y125124*
X199660*
Y125600*
X198959*
Y125124*
X189660*
Y125600*
X188959*
Y125124*
X179660*
Y125600*
X178959*
Y125124*
X178148*
Y124423*
X178959*
Y115124*
X170172*
X166533Y111485*
G75*
G02X165648Y104278I-2224J-3385*
G01*
Y100200*
G75*
G02X165650I1J-2115*
G01*
X169778*
X172209Y102631*
Y104637*
G75*
G02X170259Y108100I2100J3463*
G01*
G75*
G02X178359I4050*
G01*
G75*
G02X176409Y104637I-4050*
G01*
Y101761*
G75*
G02X175794Y100276I-2100*
G01*
X172133Y96615*
G75*
G02X170646Y96000I-1485J1485*
G01*
X166518*
X165648Y95130*
Y83100*
X167720*
G75*
G02X170648Y84450I2928J-2500*
G01*
X175648*
G75*
G02X178370Y83322I0J-3850*
G01*
X182209Y87161*
Y104637*
G75*
G02X180259Y108100I2100J3463*
G01*
G75*
G02X188359I4050*
G01*
G75*
G02X186409Y104637I-4050*
G01*
Y99900*
X189597*
Y103250*
X194097*
Y99900*
X194597*
Y103250*
X199097*
Y99900*
X202248*
Y104637*
G75*
G02X200298Y108100I2100J3463*
G01*
G75*
G02X208398I4050*
G01*
G75*
G02X206448Y104637I-4050*
G01*
Y99900*
X212248*
Y104637*
G75*
G02X210298Y108100I2100J3463*
G01*
G75*
G02X218398I4050*
G01*
G75*
G02X216448Y104637I-4050*
G01*
Y88100*
G75*
G02X216178Y87070I-2100J0*
G01*
X218148Y85100*
X220998*
Y87850*
X230648*
Y87899*
X232248*
Y90598*
G75*
G02Y90600I265J1*
G01*
Y90600*
G75*
G02X232512Y91236I900J0*
G01*
X237512Y96236*
G75*
G02X238150Y96500I637J-636*
G01*
X248148*
G75*
G02X249048Y95600J-900*
G01*
Y87850*
X255309*
Y83350*
X252948*
Y82850*
X255309*
Y78350*
X250698*
X249048Y76700*
Y75198*
X253998*
Y72100*
X257148*
X260648Y75600*
X280898*
Y80750*
X285398*
Y75600*
X285648*
X288148Y78100*
Y93792*
X282824Y99115*
G75*
G02X282209Y100600I1485J1485*
G01*
Y104637*
G75*
G02X280259Y108100I2100J3463*
G01*
G75*
G02X288148Y109391I4050*
G01*
X309098Y160600D02*
G75*
G02X317198I4050D01*
G01*
G75*
G02X309098I-4050*
G01*
X299660Y124423D02*
X308959D01*
Y115124*
X299660*
Y124423*
X289660D02*
X298959D01*
Y115124*
X289660*
Y124423*
X279660D02*
X288959D01*
Y115124*
X279660*
Y124423*
X269660D02*
X278959D01*
Y115124*
X269660*
Y124423*
X259660D02*
X268959D01*
Y115124*
X259660*
Y124423*
X267050Y86293D02*
X276624D01*
Y79671*
X267050*
Y86293*
X249660Y124423D02*
X258959D01*
Y115124*
X249660*
Y124423*
X239660D02*
X248959D01*
Y115124*
X239660*
Y124423*
X229660D02*
X238959D01*
Y115124*
X229660*
Y124423*
X219660D02*
X228959D01*
Y115124*
X219660*
Y124423*
X209660D02*
X218959D01*
Y115124*
X209660*
Y124423*
X199660D02*
X208959D01*
Y115124*
X199660*
Y124423*
X189660D02*
X198959D01*
Y115124*
X189660*
Y124423*
X190298Y108100D02*
G75*
G02X198398I4050D01*
G01*
G75*
G02X190298I-4050*
G01*
X179660Y124423D02*
X188959D01*
Y115124*
X179660*
Y124423*
X175648Y94450D02*
G75*
G02Y86750J-3850D01*
G01*
X170648*
G75*
G02Y94450J3850*
G01*
X175648*
X288148Y82982D02*
G36*
X276624D01*
Y79671*
X267050*
Y82982*
X252948*
Y82850*
X255309*
Y78350*
X250698*
X249048Y76700*
Y75198*
X253998*
Y72150*
X257198*
X260648Y75600*
X280898*
Y80750*
X285398*
Y75600*
X285648*
X288148Y78100*
Y82982*
G37*
X182209Y90600D02*
G36*
X179498D01*
G75*
G02X175648Y86750I-3850*
G01*
X170648*
G75*
G02X166798Y90600J3850*
G01*
X165698*
Y83100*
X167720*
G75*
G02X170648Y84450I2929J-2501*
G01*
X175648*
G75*
G02X178370Y83322I-1J-3852*
G01*
X182209Y87161*
Y90600*
G37*
X232248D02*
G36*
X216448D01*
Y88100*
G75*
G02Y88099I-1961J0*
G01*
G75*
G02X216178Y87070I-2096*
G01*
X218148Y85100*
X220998*
Y87850*
X230648*
Y87899*
X232248*
Y90598*
Y90600*
Y90600*
G37*
X288148D02*
G36*
X249048D01*
Y87850*
X255309*
Y83350*
X252948*
Y82982*
X267050*
Y86293*
X276624*
Y82982*
X288148*
Y90600*
G37*
X182209D02*
G36*
Y104637D01*
G75*
G02X180259Y108100I2099J3463*
G01*
Y108100*
X178359*
Y108100*
G75*
G02X176409Y104637I-4049*
G01*
Y101761*
G75*
G02X175794Y100276I-2102J0*
G01*
X172133Y96615*
G75*
G02X170646Y96000I-1485J1486*
G01*
X166518*
X165698Y95180*
Y90600*
X166798*
G75*
G02X170648Y94450I3850*
G01*
X175648*
G75*
G02X179498Y90600J-3850*
G01*
X182209*
G37*
X170259Y108100D02*
G36*
X168359D01*
G75*
G02X165698Y104295I-4050*
G01*
Y100200*
X169778*
X172209Y102631*
Y104637*
G75*
G02X170259Y108100I2099J3463*
G01*
Y108100*
G37*
X200298D02*
G36*
X198398D01*
G75*
G02X190298I-4050*
G01*
X188359*
Y108100*
G75*
G02X186409Y104637I-4049*
G01*
Y99900*
X189597*
Y103250*
X194097*
Y99900*
X194597*
Y103250*
X199097*
Y99900*
X202248*
Y104637*
G75*
G02X200298Y108100I2099J3463*
G01*
Y108100*
G37*
X210298D02*
G36*
X208398D01*
Y108100*
G75*
G02X206448Y104637I-4049*
G01*
Y99900*
X212248*
Y104637*
G75*
G02X210298Y108100I2099J3463*
G01*
Y108100*
G37*
X288148Y90600D02*
G36*
Y93792D01*
X282824Y99115*
G75*
G02X282209Y100600I1487J1485*
G01*
Y104637*
G75*
G02X280259Y108100I2099J3463*
G01*
Y108100*
X218398*
Y108100*
G75*
G02X216448Y104637I-4049*
G01*
Y90600*
X232248*
Y90600*
G75*
G02X232512Y91236I898*
G01*
X237512Y96236*
G75*
G02X238150Y96500I636J-635*
G01*
X248148*
G75*
G02X249048Y95600J-900*
G01*
Y90600*
X288148*
G37*
X350598Y95550D02*
G36*
Y108100D01*
X300648*
X315648Y93100*
X348148*
X350598Y95550*
G37*
X338148Y119773D02*
G36*
Y118100D01*
X330648Y110600*
X316648*
X310348Y116900*
Y119773*
X308959*
Y115124*
X299660*
Y119773*
X298959*
Y115124*
X289660*
Y119773*
X288959*
Y115124*
X279660*
Y119773*
X278959*
Y115124*
X269660*
Y119773*
X268959*
Y115124*
X259660*
Y119773*
X258959*
Y115124*
X249660*
Y119773*
X248959*
Y115124*
X239660*
Y119773*
X238959*
Y115124*
X229660*
Y119773*
X228959*
Y115124*
X219660*
Y119773*
X218959*
Y115124*
X209660*
Y119773*
X208959*
Y115124*
X199660*
Y119773*
X198959*
Y115124*
X189660*
Y119773*
X188959*
Y115124*
X179660*
Y119773*
X178959*
Y115124*
X170172*
X166533Y111485*
G75*
G02X168359Y108100I-2224J-3385*
G01*
X170259*
G75*
G02X178359I4050*
G01*
X180259*
G75*
G02X188359I4050*
G01*
X190298*
G75*
G02X198398I4050*
G01*
X200298*
G75*
G02X208398I4050*
G01*
X210298*
G75*
G02X218398I4050*
G01*
X280259*
G75*
G02X288148Y109391I4050*
G01*
Y110600*
X291123*
G75*
G02X297496I3186J-2500*
G01*
X298148*
X300648Y108100*
X350598*
Y119773*
X338148*
G37*
X310348D02*
G36*
Y125600D01*
X308959*
Y125124*
X299660*
Y125600*
X298959*
Y125124*
X289660*
Y125600*
X288959*
Y125124*
X279660*
Y125600*
X278959*
Y125124*
X269660*
Y125600*
X268959*
Y125124*
X259660*
Y125600*
X258959*
Y125124*
X249660*
Y125600*
X248959*
Y125124*
X239660*
Y125600*
X238959*
Y125124*
X229660*
Y125600*
X228959*
Y125124*
X219660*
Y125600*
X218959*
Y125124*
X209660*
Y125600*
X208959*
Y125124*
X199660*
Y125600*
X198959*
Y125124*
X189660*
Y125600*
X188959*
Y125124*
X179660*
Y125600*
X178959*
Y125124*
X178148*
Y124423*
X178959*
Y119773*
X179660*
Y124423*
X188959*
Y119773*
X189660*
Y124423*
X198959*
Y119773*
X199660*
Y124423*
X208959*
Y119773*
X209660*
Y124423*
X218959*
Y119773*
X219660*
Y124423*
X228959*
Y119773*
X229660*
Y124423*
X238959*
Y119773*
X239660*
Y124423*
X248959*
Y119773*
X249660*
Y124423*
X258959*
Y119773*
X259660*
Y124423*
X268959*
Y119773*
X269660*
Y124423*
X278959*
Y119773*
X279660*
Y124423*
X288959*
Y119773*
X289660*
Y124423*
X298959*
Y119773*
X299660*
Y124423*
X308959*
Y119773*
X310348*
G37*
X338148D02*
G36*
X350598D01*
Y160600*
X317198*
G75*
G02X309098I-4050*
G01*
X308148*
Y152850*
X313298*
Y148350*
X308148*
Y143100*
X310648Y140600*
X330648*
X338148Y133100*
Y119773*
G37*
X308148Y160600D02*
G36*
X309098D01*
G75*
G02X317198I4050*
G01*
X350598*
Y163150*
X348198Y165550*
X310598*
X308148Y163100*
Y160600*
G37*
X353381Y265600D02*
X2050D01*
Y223275*
X2512Y223736*
X5012Y226236*
G75*
G02X5650Y226500I637J-636*
G01*
X107775*
X112512Y231236*
G75*
G02X113150Y231500I637J-636*
G01*
X120646*
G75*
G02X121284Y231236I2J-900*
G01*
X126284Y226236*
G75*
G02X126548Y225600I-636J-637*
G01*
Y225600*
G75*
G02Y225598I-262J-1*
G01*
Y210602*
G75*
G02Y210600I-265J-1*
G01*
Y210600*
G75*
G02X126284Y209964I-900J0*
G01*
X121284Y204964*
G75*
G02X120646Y204700I-637J636*
G01*
X113150*
G75*
G02X112512Y204964I-2J900*
G01*
X107775Y209700*
X21021*
X16548Y205227*
Y204658*
G75*
G02Y204650I-800J-4*
G01*
Y204650*
G75*
G02X16543Y204550I-900J0*
G01*
G75*
G02X19111Y202700I-894J-3950*
G01*
X28898*
Y204850*
X37398*
Y202700*
X52894*
Y202850*
X63195*
Y198350*
X62694*
Y197700*
X63754*
Y197986*
X68526*
Y193214*
X63754*
Y193500*
X62694*
Y192850*
X63195*
Y188350*
X52894*
Y188500*
X37398*
Y186350*
X28898*
Y188500*
X19111*
G75*
G02X16543Y186650I-3463J2100*
G01*
G75*
G02X16548Y186550I-894J-100*
G01*
Y186550*
G75*
G02Y186542I-800J-4*
G01*
Y184658*
G75*
G02Y184650I-800J-4*
G01*
Y184650*
G75*
G02X16543Y184550I-900J0*
G01*
G75*
G02X19111Y182700I-894J-3950*
G01*
X28898*
Y184850*
X37398*
Y182700*
X52463*
Y182850*
X62762*
Y178350*
X62263*
Y177700*
X63754*
Y177986*
X68526*
Y173214*
X63754*
Y173500*
X62263*
Y172850*
X62762*
Y168350*
X52463*
Y168500*
X37398*
Y166350*
X28898*
Y168500*
X19111*
G75*
G02X16543Y166650I-3463J2100*
G01*
G75*
G02X16548Y166550I-894J-100*
G01*
Y166550*
G75*
G02Y166542I-800J-4*
G01*
Y164658*
G75*
G02Y164650I-800J-4*
G01*
Y164650*
G75*
G02X16543Y164550I-900J0*
G01*
G75*
G02X19111Y162700I-894J-3950*
G01*
X28898*
Y164850*
X37398*
Y162700*
X52746*
Y162850*
X63046*
Y158350*
X62546*
Y157700*
X63754*
Y157986*
X68526*
Y153214*
X63754*
Y153500*
X62546*
Y152850*
X63046*
Y148350*
X52746*
Y148500*
X37398*
Y146350*
X28898*
Y148500*
X19111*
G75*
G02X17832Y147189I-3463J2100*
G01*
X21021Y144000*
X48146*
G75*
G02X48784Y143736I2J-900*
G01*
X60891Y131630*
Y141792*
G75*
G02X61552Y143389I2257*
G01*
X71551Y153388*
G75*
G02X72770Y154018I1597J-1596*
G01*
Y154206*
X77542*
Y149435*
X73983*
X65406Y140857*
Y91535*
X131583Y25357*
X154713*
X161551Y32196*
G75*
G02X163148Y32857I1597J-1596*
G01*
X167529*
G75*
G02X170648Y34450I3119J-2257*
G01*
X175648*
G75*
G02Y26750J-3850*
G01*
X170648*
G75*
G02X167529Y28343J3850*
G01*
X164083*
X157245Y21504*
G75*
G02X155648Y20843I-1597J1596*
G01*
X130648*
G75*
G02X129051Y21504J2257*
G01*
X81548Y69007*
Y25602*
G75*
G02Y25600I-265J-1*
G01*
Y25600*
G75*
G02X81284Y24964I-900J0*
G01*
X78784Y22464*
X74021Y17700*
X279778*
X296048Y33970*
Y85892*
X289048Y92892*
Y78102*
G75*
G02Y78100I-265J-1*
G01*
Y78100*
G75*
G02X288784Y77464I-900J0*
G01*
X286284Y74964*
G75*
G02X285646Y74700I-637J636*
G01*
X285398*
Y74500*
X285646*
G75*
G02X285765Y74493I3J-901*
G01*
G75*
G02X286284Y74236I-117J-892*
G01*
X288784Y71736*
G75*
G02X289048Y71100I-636J-637*
G01*
Y71100*
G75*
G02Y71098I-262J-1*
G01*
Y50602*
G75*
G02Y50600I-265J-1*
G01*
Y50600*
G75*
G02X288784Y49964I-900J0*
G01*
X286284Y47464*
G75*
G02X285646Y47200I-637J636*
G01*
X279451*
Y45734*
X271845*
Y47200*
X263150*
G75*
G02X262512Y47464I-2J900*
G01*
X260248Y49727*
Y25600*
G75*
G02X259633Y24115I-2100*
G01*
X257133Y21615*
G75*
G02X255646Y21000I-1485J1485*
G01*
X198150*
G75*
G02X196663Y21615I-3J2100*
G01*
X179778Y38500*
X178875*
G75*
G02X175648Y36750I-3227J2100*
G01*
X170648*
G75*
G02X167421Y38500J3850*
G01*
X163150*
G75*
G02X161663Y39115I-3J2100*
G01*
X157278Y43500*
X148181*
G75*
G02X145648Y36750I-2533J-2900*
G01*
X140648*
G75*
G02X137529Y38343J3850*
G01*
X125648*
G75*
G02X124051Y39004J2257*
G01*
X69052Y94003*
G75*
G02X68391Y95600I1596J1597*
G01*
Y138100*
G75*
G02X69052Y139697I2257*
G01*
X80891Y151535*
Y167165*
X78513Y169543*
X77542*
Y169435*
X76951*
G75*
G02Y161765I-1303J-3835*
G01*
X77542*
Y156994*
X72770*
Y161765*
X74345*
G75*
G02Y169435I1303J3835*
G01*
X72770*
Y174206*
X77542*
Y174057*
X79448*
G75*
G02X81045Y173396J-2257*
G01*
X84744Y169697*
G75*
G02X85406Y168100I-1596J-1597*
G01*
Y150600*
G75*
G02X84744Y149003I-2257*
G01*
X72906Y137165*
Y96535*
X126583Y42857*
X137529*
G75*
G02X138115Y43500I3120J-2259*
G01*
X133150*
G75*
G02X131663Y44115I-3J2100*
G01*
X129163Y46615*
G75*
G02X128548Y48100I1485J1485*
G01*
Y58100*
G75*
G02X129163Y59585I2100*
G01*
X131663Y62085*
G75*
G02X133150Y62700I1485J-1485*
G01*
X137421*
G75*
G02X140648Y64450I3227J-2100*
G01*
X145648*
G75*
G02X148875Y62700J-3850*
G01*
X152278*
X153548Y63970*
Y72230*
X152278Y73500*
X148181*
G75*
G02X145648Y66750I-2533J-2900*
G01*
X140648*
G75*
G02X137529Y68343J3850*
G01*
X108148*
G75*
G02X106551Y69004J2257*
G01*
X76552Y99003*
G75*
G02X75891Y100600I1596J1597*
G01*
Y135600*
G75*
G02X76552Y137197I2257*
G01*
X88391Y149035*
Y179665*
X78513Y189543*
X77542*
Y189435*
X76951*
G75*
G02Y181765I-1303J-3835*
G01*
X77542*
Y176994*
X72770*
Y181765*
X74345*
G75*
G02Y189435I1303J3835*
G01*
X72770*
Y194206*
X77542*
Y194057*
X79448*
G75*
G02X81045Y193396J-2257*
G01*
X92244Y182197*
G75*
G02X92906Y180600I-1596J-1597*
G01*
Y148100*
G75*
G02X92244Y146503I-2257*
G01*
X80406Y134665*
Y101535*
X109083Y72857*
X137529*
G75*
G02X138115Y73500I3120J-2259*
G01*
X133150*
G75*
G02X131663Y74115I-3J2100*
G01*
X129163Y76615*
G75*
G02X128548Y78100I1485J1485*
G01*
Y88100*
G75*
G02X129163Y89585I2100*
G01*
X131663Y92085*
G75*
G02X133150Y92700I1485J-1485*
G01*
X137421*
G75*
G02X140648Y94450I3227J-2100*
G01*
X145648*
G75*
G02Y86750J-3850*
G01*
X140648*
G75*
G02X137421Y88500J3850*
G01*
X134018*
X132748Y87230*
Y78970*
X134018Y77700*
X138115*
G75*
G02X140648Y84450I2533J2900*
G01*
X145648*
G75*
G02X148767Y82857J-3850*
G01*
X152213*
X153391Y84035*
Y99500*
G75*
G02X154057Y101102I2257*
G01*
X160333Y107333*
G75*
G02X165731Y111893I3977J767*
G01*
G75*
G02X165897Y112121I802J-408*
G01*
X168899Y115124*
X159660*
Y124423*
X168959*
Y115184*
X169535Y115760*
G75*
G02X169660Y115864I637J-635*
G01*
Y124423*
X177248*
Y125124*
X169660*
Y134423*
X178959*
Y126500*
X179660*
Y134423*
X188959*
Y126500*
X189660*
Y134423*
X198959*
Y126500*
X199660*
Y134423*
X208959*
Y126500*
X209660*
Y134423*
X218959*
Y126500*
X219660*
Y134423*
X228959*
Y126500*
X229660*
Y134423*
X238959*
Y126500*
X239660*
Y134423*
X248959*
Y126500*
X249660*
Y134423*
X258959*
Y126500*
X259660*
Y134423*
X268959*
Y126500*
X269660*
Y134423*
X278959*
Y126500*
X279660*
Y134423*
X288959*
Y126500*
X289660*
Y134423*
X298959*
Y126500*
X299660*
Y134423*
X308959*
Y126500*
X310348*
G75*
G02X311248Y125600J-900*
G01*
Y117273*
X317021Y111500*
X330275*
X337248Y118473*
Y132727*
X330275Y139700*
X310650*
G75*
G02X310012Y139964I-2J900*
G01*
X307512Y142464*
G75*
G02X307248Y143100I636J637*
G01*
Y143100*
G75*
G02Y143102I262J1*
G01*
Y148350*
X305248*
Y145600*
G75*
G02X304633Y144115I-2100*
G01*
X299633Y139115*
G75*
G02X298146Y138500I-1485J1485*
G01*
X237772*
G75*
G02X230259Y140600I-3463J2100*
G01*
G75*
G02X237772Y142700I4050*
G01*
X297278*
X301048Y146470*
Y157137*
G75*
G02X299098Y160600I2100J3463*
G01*
G75*
G02X307198I4050*
G01*
G75*
G02X305248Y157137I-4050*
G01*
Y152850*
X307248*
Y163098*
G75*
G02Y163100I265J1*
G01*
Y163100*
G75*
G02X307512Y163736I900J0*
G01*
X310012Y166236*
G75*
G02X310650Y166500I637J-636*
G01*
X348146*
G75*
G02X348784Y166236I2J-900*
G01*
X351284Y163736*
G75*
G02X351548Y163100I-636J-637*
G01*
Y163100*
G75*
G02Y163098I-262J-1*
G01*
Y95602*
G75*
G02Y95600I-265J-1*
G01*
Y95600*
G75*
G02X351284Y94964I-900J0*
G01*
X348784Y92464*
G75*
G02X348146Y92200I-637J636*
G01*
X315650*
G75*
G02X315012Y92464I-2J900*
G01*
X300012Y107464*
X298179Y109296*
G75*
G02X297931Y106287I-3869J-1196*
G01*
X307133Y97085*
G75*
G02X307748Y95600I-1485J-1485*
G01*
Y28100*
G75*
G02X307133Y26615I-2100*
G01*
X287133Y6615*
G75*
G02X285646Y6000I-1485J1485*
G01*
X33150*
G75*
G02X31663Y6615I-3J2100*
G01*
X6663Y31615*
G75*
G02X6048Y33100I1485J1485*
G01*
Y60600*
G75*
G02X6663Y62085I2100*
G01*
X12943Y68365*
G75*
G02X14430Y68980I1485J-1485*
G01*
X18754*
Y69265*
X23526*
Y64494*
X18754*
Y64780*
X17898*
Y57950*
X13398*
Y62880*
X10248Y59730*
Y33970*
X34018Y10200*
X284778*
X303548Y28970*
Y94730*
X294227Y104051*
G75*
G02X290589Y109700I82J4049*
G01*
X289048*
Y109394*
G75*
G02Y109392I-462J-1*
G01*
G75*
G02Y109391I-557J0*
G01*
G75*
G02X288339Y108512I-900*
G01*
G75*
G02X288359Y108100I-4030J-411*
G01*
G75*
G02X286409Y104637I-4050*
G01*
Y101470*
X299633Y88246*
G75*
G02X300248Y86761I-1485J-1485*
G01*
Y33100*
G75*
G02X299633Y31615I-2100*
G01*
X282133Y14115*
G75*
G02X280646Y13500I-1485J1485*
G01*
X63150*
G75*
G02X61663Y14115I-3J2100*
G01*
X59163Y16615*
G75*
G02X58548Y18100I1485J1485*
G01*
Y57220*
X57542*
Y56935*
X52770*
Y61706*
X57542*
Y61420*
X58398*
Y68250*
X62248*
Y72727*
X62065Y72911*
G75*
G02X61875Y73188I635J638*
G01*
G75*
G02X61820Y73357I824J360*
G01*
G75*
G03X61706Y73666I-1175J-258*
G01*
G75*
G02X54428Y77200I-3558J1934*
G01*
X10650*
G75*
G02X10012Y77464I-2J900*
G01*
X2050Y85425*
Y17737*
G75*
G02X17737Y2050I-1450J-17137*
G01*
X337695*
G75*
G02X353381Y17737I17137J-1450*
G01*
Y265600*
X129660Y124423D02*
X138959D01*
Y115124*
X129660*
Y124423*
Y134423D02*
X138959D01*
Y125124*
X129660*
Y134423*
X139660Y124423D02*
X148959D01*
Y115124*
X139660*
Y124423*
Y134423D02*
X148959D01*
Y125124*
X139660*
Y134423*
X149660Y124423D02*
X158959D01*
Y115124*
X149660*
Y124423*
Y134423D02*
X158959D01*
Y125124*
X149660*
Y134423*
X159660D02*
X168959D01*
Y125124*
X159660*
Y134423*
X272042Y203100D02*
G75*
G02X295789I11874D01*
G01*
G75*
G02X272042I-11874*
G01*
X317908Y187549D02*
G75*
G02X330632I6362D01*
G01*
G75*
G02X317908I-6362*
G01*
Y218651D02*
G75*
G02X330632I6362D01*
G01*
G75*
G02X317908I-6362*
G01*
X119660Y124423D02*
X128959D01*
Y115124*
X119660*
Y124423*
Y134423D02*
X128959D01*
Y125124*
X119660*
Y134423*
X109660Y124423D02*
X118959D01*
Y115124*
X109660*
Y124423*
Y134423D02*
X118959D01*
Y125124*
X109660*
Y134423*
X71598Y205600D02*
G75*
G02X79698I4050D01*
G01*
G75*
G02X76951Y201765I-4050*
G01*
X77542*
Y196994*
X72770*
Y201765*
X74345*
G75*
G02X71598Y205600I1303J3835*
G01*
X88774Y34222D02*
G75*
G02X101498I6362D01*
G01*
G75*
G02X88774I-6362*
G01*
X271845Y45466D02*
X279451D01*
Y37860*
X271845*
Y45466*
X145648Y34450D02*
G75*
G02Y26750J-3850D01*
G01*
X140648*
G75*
G02Y34450J3850*
G01*
X145648*
X88774Y124773D02*
G75*
G02X101498I6362D01*
G01*
G75*
G02X88774I-6362*
G01*
X317121D02*
G75*
G02X329844I6362D01*
G01*
G75*
G02X317121I-6362*
G01*
Y34222D02*
G75*
G02X329844I6362D01*
G01*
G75*
G02X317121I-6362*
G01*
X18754Y61706D02*
X23526D01*
Y56935*
X18754*
Y61706*
X29685Y47650D02*
G75*
G02X37198Y45550I3463J-2100D01*
G01*
G75*
G02X29685Y43450I-4050*
G01*
X27898*
Y42950*
X23398*
Y50467*
G75*
G02X23391Y50650I2248J183*
G01*
Y51100*
G75*
G02X23398Y51283I2256*
G01*
Y53250*
X24605*
X27891Y56535*
Y60714*
X27770*
Y65486*
X32542*
Y60714*
X32406*
Y55600*
G75*
G02X31744Y54003I-2257*
G01*
X27898Y50157*
Y47650*
X29685*
X28898Y27350D02*
X37398D01*
Y18850*
X28898*
Y27350*
X14098Y50600D02*
G75*
G02X22198I4050D01*
G01*
G75*
G02X14098I-4050*
G01*
X38898Y27350D02*
X47398D01*
Y18850*
X38898*
Y27350*
X52898Y51283D02*
G75*
G02X52906Y51100I-2248J-183D01*
G01*
Y50650*
G75*
G02X52898Y50467I-2256*
G01*
Y42950*
X48398*
Y43450*
X46611*
G75*
G02X39098Y45550I-3463J2100*
G01*
G75*
G02X46611Y47650I4050*
G01*
X48398*
Y50157*
X44552Y54003*
G75*
G02X43891Y55600I1596J1597*
G01*
Y60714*
X43754*
Y65486*
X48526*
Y60714*
X48406*
Y56535*
X51691Y53250*
X52898*
Y51283*
X48898Y27350D02*
X57398D01*
Y18850*
X48898*
Y27350*
X52770Y69265D02*
X57542D01*
Y64494*
X52770*
Y69265*
X285178Y23100D02*
G36*
X258618D01*
X257133Y21615*
G75*
G02X255646Y21000I-1485J1486*
G01*
X198150*
G75*
G02X196663Y21615I-2J2101*
G01*
X195178Y23100*
X158841*
X157245Y21504*
G75*
G02X155648Y20843I-1597J1596*
G01*
X130648*
G75*
G02X129051Y21504I0J2258*
G01*
X127456Y23100*
X79420*
X78784Y22464*
X74021Y17700*
X279778*
X285178Y23100*
G37*
X297678D02*
G36*
X291118D01*
X282133Y14115*
G75*
G02X280646Y13500I-1485J1486*
G01*
X63150*
G75*
G02X61663Y14115I-2J2101*
G01*
X59163Y16615*
G75*
G02X58548Y18100I1487J1485*
G01*
Y23100*
X57398*
Y18850*
X48898*
Y23100*
X47398*
Y18850*
X38898*
Y23100*
X37398*
Y18850*
X28898*
Y23100*
X21118*
X34018Y10200*
X284778*
X297678Y23100*
G37*
X353331Y17732D02*
G36*
Y23100D01*
X303618*
X287133Y6615*
G75*
G02X285646Y6000I-1485J1486*
G01*
X33150*
G75*
G02X31663Y6615I-2J2101*
G01*
X15178Y23100*
X2100*
Y17732*
G75*
G02X17732Y2100I-1500J-17133*
G01*
X337699*
G75*
G02X353331Y17732I17133J-1500*
G01*
G37*
X15178Y23100D02*
G36*
X6663Y31615D01*
G75*
G02X6048Y33100I1487J1485*
G01*
Y34222*
X2100*
Y23100*
X15178*
G37*
X58548Y34222D02*
G36*
X10248D01*
Y33970*
X21118Y23100*
X28898*
Y27350*
X37398*
Y23100*
X38898*
Y27350*
X47398*
Y23100*
X48898*
Y27350*
X57398*
Y23100*
X58548*
Y34222*
G37*
X296048D02*
G36*
X260248D01*
Y25600*
G75*
G02X259633Y24115I-2102J0*
G01*
X258618Y23100*
X285178*
X296048Y33970*
Y34222*
G37*
X127456Y23100D02*
G36*
X116333Y34222D01*
X101498*
G75*
G02X88774I-6362*
G01*
X81548*
Y25602*
Y25600*
Y25600*
Y25600*
G75*
G02X81284Y24964I-898*
G01*
X79420Y23100*
X127456*
G37*
X169342Y34222D02*
G36*
X146954D01*
G75*
G02X149498Y30600I-1306J-3622*
G01*
G75*
G02X145648Y26750I-3850*
G01*
X140648*
G75*
G02X136798Y30600J3850*
G01*
G75*
G02X139342Y34222I3850*
G01*
X122719*
X131583Y25357*
X154713*
X161551Y32196*
G75*
G02X163148Y32857I1597J-1596*
G01*
X167529*
G75*
G02X169342Y34222I3119J-2258*
G01*
G37*
X184056D02*
G36*
X176954D01*
G75*
G02X179498Y30600I-1306J-3622*
G01*
G75*
G02X175648Y26750I-3850*
G01*
X170648*
G75*
G02X167529Y28343J3851*
G01*
X164083*
X158841Y23100*
X195178*
X184056Y34222*
G37*
X303548D02*
G36*
X300248D01*
Y33100*
G75*
G02X299633Y31615I-2102J0*
G01*
X291118Y23100*
X297678*
X303548Y28970*
Y34222*
G37*
X307748D02*
G36*
Y28100D01*
G75*
G02X307133Y26615I-2102J0*
G01*
X303618Y23100*
X353331*
Y34222*
X329844*
G75*
G02X317121I-6362*
G01*
X307748*
G37*
X6048Y41663D02*
G36*
X2100D01*
Y34222*
X6048*
Y41663*
G37*
X58548D02*
G36*
X44285D01*
G75*
G02X42011I-1137J3887*
G01*
X34285*
G75*
G02X32011I-1137J3887*
G01*
X10248*
Y34222*
X58548*
Y41663*
G37*
X296048D02*
G36*
X279451D01*
Y37860*
X271845*
Y41663*
X260248*
Y34222*
X296048*
Y41663*
G37*
X116333Y34222D02*
G36*
X108893Y41663D01*
X81548*
Y34222*
X88774*
G75*
G02X101498I6362*
G01*
X116333*
G37*
X159115Y41663D02*
G36*
X149348D01*
G75*
G02X149498Y40600I-3701J-1063*
G01*
G75*
G02X145648Y36750I-3850*
G01*
X140648*
G75*
G02X137529Y38343J3851*
G01*
X125648*
G75*
G02X124051Y39004I0J2258*
G01*
X121393Y41663*
X115278*
X122719Y34222*
X139342*
G75*
G02X140648Y34450I1306J-3622*
G01*
X145648*
G75*
G02X146954Y34222J-3850*
G01*
X169342*
G75*
G02X170648Y34450I1306J-3622*
G01*
X175648*
G75*
G02X176954Y34222J-3850*
G01*
X184056*
X179778Y38500*
X178875*
G75*
G02X175648Y36750I-3227J2099*
G01*
X170648*
G75*
G02X167421Y38500I0J3851*
G01*
X163150*
G75*
G02X161663Y39115I-2J2101*
G01*
X159115Y41663*
G37*
X303548D02*
G36*
X300248D01*
Y34222*
X303548*
Y41663*
G37*
X307748D02*
G36*
Y34222D01*
X317121*
G75*
G02X329844I6362*
G01*
X353331*
Y41663*
X307748*
G37*
X6048Y50600D02*
G36*
X2100D01*
Y41663*
X6048*
Y50600*
G37*
X32011Y41663D02*
G36*
G75*
G02X29685Y43450I1137J3887D01*
G01*
X27898*
Y42950*
X23398*
Y50467*
G75*
G02X23391Y50600I2374J186*
G01*
X22198*
G75*
G02X14098I-4050*
G01*
X10248*
Y41663*
X32011*
G37*
X47956Y50600D02*
G36*
X28341D01*
X27898Y50157*
Y47650*
X29685*
G75*
G02X37198Y45550I3463J-2100*
G01*
G75*
G02X34285Y41663I-4050*
G01*
X42011*
G75*
G02X39098Y45550I1137J3887*
G01*
G75*
G02X46611Y47650I4050*
G01*
X48398*
Y50157*
X47956Y50600*
G37*
X128548D02*
G36*
X118841D01*
X126583Y42857*
X137529*
G75*
G02X138115Y43500I3134J-2272*
G01*
X133150*
G75*
G02X131663Y44115I-2J2101*
G01*
X129163Y46615*
G75*
G02X128548Y48100I1487J1485*
G01*
Y50600*
G37*
X58548D02*
G36*
X52905D01*
G75*
G02X52898Y50467I-2381J52*
G01*
Y42950*
X48398*
Y43450*
X46611*
G75*
G02X44285Y41663I-3463J2100*
G01*
X58548*
Y50600*
G37*
X108893Y41663D02*
G36*
X99956Y50600D01*
X81548*
Y41663*
X108893*
G37*
X121393D02*
G36*
X112456Y50600D01*
X106341*
X115278Y41663*
X121393*
G37*
X159115D02*
G36*
X157278Y43500D01*
X148181*
G75*
G02X149348Y41663I-2533J-2900*
G01*
X159115*
G37*
X296048Y50600D02*
G36*
X289048D01*
Y50600*
G75*
G02X288784Y49964I-898*
G01*
X286284Y47464*
G75*
G02X285646Y47200I-636J635*
G01*
X279451*
Y45734*
X271845*
Y47200*
X263150*
G75*
G02X262512Y47464I-2J899*
G01*
X260248Y49727*
Y41663*
X271845*
Y45466*
X279451*
Y41663*
X296048*
Y50600*
G37*
X303548D02*
G36*
X300248D01*
Y41663*
X303548*
Y50600*
G37*
X307748D02*
G36*
Y41663D01*
X353331*
Y50600*
X307748*
G37*
X6048Y59320D02*
G36*
X2100D01*
Y50600*
X6048*
Y59320*
G37*
X27891D02*
G36*
X23526D01*
Y56935*
X18754*
Y59320*
X17898*
Y57950*
X13398*
Y59320*
X10248*
Y50600*
X14098*
G75*
G02X22198I4050*
G01*
X23391*
G75*
G02X23391Y50650I2383J63*
G01*
Y51100*
G75*
G02X23398Y51283I2382J-5*
G01*
Y53250*
X24605*
X27891Y56535*
Y59320*
G37*
X47956Y50600D02*
G36*
X44552Y54003D01*
G75*
G02X43891Y55600I1596J1597*
G01*
Y59320*
X32406*
Y55600*
G75*
G02X31744Y54003I-2258J0*
G01*
X28341Y50600*
X47956*
G37*
X128939Y59320D02*
G36*
X110120D01*
X118841Y50600*
X128548*
Y58100*
G75*
G02X128939Y59320I2102J0*
G01*
G37*
X52770D02*
G36*
X48406D01*
Y56535*
X51691Y53250*
X52898*
Y51283*
G75*
G02X52906Y51100I-2374J-189*
G01*
Y50650*
G75*
G02X52905Y50600I-2383J13*
G01*
X58548*
Y57220*
X57542*
Y56935*
X52770*
Y59320*
G37*
X99956Y50600D02*
G36*
X91235Y59320D01*
X81548*
Y50600*
X99956*
G37*
X106341D02*
G36*
X112456D01*
X103735Y59320*
X97620*
X106341Y50600*
G37*
X303548Y59320D02*
G36*
X300248D01*
Y50600*
X303548*
Y59320*
G37*
X296048D02*
G36*
X289048D01*
Y50602*
Y50600*
Y50600*
X296048*
Y59320*
G37*
X307748D02*
G36*
Y50600D01*
X353331*
Y59320*
X307748*
G37*
X11457Y66880D02*
G36*
X2100D01*
Y59320*
X6048*
Y60600*
G75*
G02X6663Y62085I2102J0*
G01*
X11457Y66880*
G37*
X13398Y59320D02*
G36*
Y62880D01*
X10248Y59730*
Y59320*
X13398*
G37*
X58398Y66880D02*
G36*
X57542D01*
Y64494*
X52770*
Y66880*
X23526*
Y64494*
X18754*
Y64780*
X17898*
Y59320*
X18754*
Y61706*
X23526*
Y59320*
X27891*
Y60714*
X27770*
Y65486*
X32542*
Y60714*
X32406*
Y59320*
X43891*
Y60714*
X43754*
Y65486*
X48526*
Y60714*
X48406*
Y59320*
X52770*
Y61706*
X57542*
Y61420*
X58398*
Y66880*
G37*
X153548D02*
G36*
X146640D01*
G75*
G02X145648Y66750I-992J3721*
G01*
X140648*
G75*
G02X139656Y66880J3851*
G01*
X102561*
X110120Y59320*
X128939*
G75*
G02X129163Y59585I1710J-1221*
G01*
X131663Y62085*
G75*
G02X133150Y62700I1485J-1486*
G01*
X137421*
G75*
G02X140648Y64450I3227J-2099*
G01*
X145648*
G75*
G02X148875Y62700I0J-3851*
G01*
X152278*
X153548Y63970*
Y66880*
G37*
X91235Y59320D02*
G36*
X83676Y66880D01*
X81548*
Y59320*
X91235*
G37*
X97620D02*
G36*
X103735D01*
X96176Y66880*
X90061*
X97620Y59320*
G37*
X303548Y66880D02*
G36*
X300248D01*
Y59320*
X303548*
Y66880*
G37*
X296048D02*
G36*
X289048D01*
Y59320*
X296048*
Y66880*
G37*
X307748D02*
G36*
Y59320D01*
X353331*
Y66880*
X307748*
G37*
X58398D02*
G36*
Y68250D01*
X62248*
Y72727*
X62065Y72911*
G75*
G02X61875Y73188I641J642*
G01*
G75*
G02X61820Y73357I831J363*
G01*
G75*
G03X61706Y73666I-1190J-263*
G01*
G75*
G02X54098Y75600I-3558J1934*
G01*
G75*
G02X54428Y77200I4050J0*
G01*
X10650*
G75*
G02X10012Y77464I-2J899*
G01*
X2100Y85375*
Y66880*
X11457*
X12943Y68365*
G75*
G02X14430Y68980I1485J-1486*
G01*
X18754*
Y69265*
X23526*
Y66880*
X52770*
Y69265*
X57542*
Y66880*
X58398*
G37*
X153548D02*
G36*
Y72230D01*
X152278Y73500*
X148181*
G75*
G02X149498Y70600I-2533J-2900*
G01*
G75*
G02X146640Y66880I-3850J0*
G01*
X153548*
G37*
X90061D02*
G36*
X96176D01*
X69052Y94003*
G75*
G02X68391Y95600I1596J1597*
G01*
Y119773*
X65406*
Y91535*
X90061Y66880*
G37*
X83676D02*
G36*
X81548Y69007D01*
Y66880*
X83676*
G37*
X139656D02*
G36*
G75*
G02X137529Y68343I992J3721D01*
G01*
X108148*
G75*
G02X106551Y69004I0J2258*
G01*
X76552Y99003*
G75*
G02X75891Y100600I1596J1597*
G01*
Y119773*
X72906*
Y96535*
X102561Y66880*
X139656*
G37*
X159660Y119773D02*
G36*
X158959D01*
Y115124*
X149660*
Y119773*
X148959*
Y115124*
X139660*
Y119773*
X138959*
Y115124*
X129660*
Y119773*
X128959*
Y115124*
X119660*
Y119773*
X118959*
Y115124*
X109660*
Y119773*
X99070*
G75*
G02X91203I-3933J5000*
G01*
X80406*
Y101535*
X109083Y72857*
X137529*
G75*
G02X138115Y73500I3134J-2272*
G01*
X133150*
G75*
G02X131663Y74115I-2J2101*
G01*
X129163Y76615*
G75*
G02X128548Y78100I1487J1485*
G01*
Y88100*
G75*
G02X129163Y89585I2102J0*
G01*
X131663Y92085*
G75*
G02X133150Y92700I1485J-1486*
G01*
X137421*
G75*
G02X140648Y94450I3227J-2099*
G01*
X145648*
G75*
G02X149498Y90600J-3850*
G01*
G75*
G02X145648Y86750I-3850*
G01*
X140648*
G75*
G02X137421Y88500I0J3851*
G01*
X134018*
X132748Y87230*
Y78970*
X134018Y77700*
X138115*
G75*
G02X136798Y80600I2533J2900*
G01*
G75*
G02X140648Y84450I3850*
G01*
X145648*
G75*
G02X148767Y82857J-3851*
G01*
X152213*
X153391Y84035*
Y99500*
G75*
G02Y99501I1961J0*
G01*
G75*
G02X154057Y101102I2256*
G01*
X160333Y107333*
G75*
G02X160259Y108100I3977J767*
G01*
G75*
G02X165731Y111893I4050*
G01*
G75*
G02X165897Y112121I804J-409*
G01*
X168899Y115124*
X159660*
Y119773*
G37*
X169660D02*
G36*
X168959D01*
Y115184*
X169535Y115760*
G75*
G02X169660Y115864I641J-641*
G01*
Y119773*
G37*
X296048Y66880D02*
G36*
Y85892D01*
X289048Y92892*
Y78102*
Y78100*
Y78100*
Y78100*
G75*
G02X288784Y77464I-898*
G01*
X286284Y74964*
G75*
G02X285646Y74700I-636J635*
G01*
X285398*
Y74500*
X285646*
G75*
G02X285765Y74493I-4J-1004*
G01*
G75*
G02X286284Y74236I-117J-890*
G01*
X288784Y71736*
G75*
G02X289048Y71100I-634J-636*
G01*
Y71100*
Y71100*
Y71098*
Y66880*
X296048*
G37*
X303548D02*
G36*
Y94730D01*
X294227Y104051*
G75*
G02X290259Y108100I82J4049*
G01*
G75*
G02X290589Y109700I4050*
G01*
X289048*
Y109394*
Y109392*
Y109391*
G75*
G02X288339Y108512I-900J0*
G01*
G75*
G02X288359Y108104I-3970J-407*
G01*
G75*
G02Y108100I-4135J-2*
G01*
Y108100*
G75*
G02X286409Y104637I-4049*
G01*
Y101470*
X299633Y88246*
G75*
G02X300248Y86761I-1487J-1485*
G01*
Y66880*
X303548*
G37*
X351548Y119773D02*
G36*
Y95602D01*
Y95600*
Y95600*
Y95600*
G75*
G02X351284Y94964I-898*
G01*
X348784Y92464*
G75*
G02X348146Y92200I-636J635*
G01*
X315650*
G75*
G02X315012Y92464I-2J899*
G01*
X300012Y107464*
X298179Y109296*
G75*
G02X298360Y108100I-3867J-1197*
G01*
G75*
G02X297931Y106287I-4048J0*
G01*
X307133Y97085*
G75*
G02X307748Y95600I-1487J-1485*
G01*
Y66880*
X353331*
Y119773*
X351548*
G37*
X337248D02*
G36*
X327416D01*
G75*
G02X319549I-3933J5000*
G01*
X311248*
Y117273*
X317021Y111500*
X330275*
X337248Y118473*
Y119773*
G37*
X169660D02*
G36*
Y124423D01*
X177248*
Y125124*
X169660*
Y129773*
X168959*
Y125124*
X159660*
Y129773*
X158959*
Y125124*
X149660*
Y129773*
X148959*
Y125124*
X139660*
Y129773*
X138959*
Y125124*
X129660*
Y129773*
X128959*
Y125124*
X119660*
Y129773*
X118959*
Y125124*
X109660*
Y129773*
X99070*
G75*
G02X101498Y124773I-3933J-5000*
G01*
G75*
G02X99070Y119773I-6362*
G01*
X109660*
Y124423*
X118959*
Y119773*
X119660*
Y124423*
X128959*
Y119773*
X129660*
Y124423*
X138959*
Y119773*
X139660*
Y124423*
X148959*
Y119773*
X149660*
Y124423*
X158959*
Y119773*
X159660*
Y124423*
X168959*
Y119773*
X169660*
G37*
X68391Y129773D02*
G36*
X65406D01*
Y119773*
X68391*
Y129773*
G37*
X75891D02*
G36*
X72906D01*
Y119773*
X75891*
Y129773*
G37*
X91203D02*
G36*
X80406D01*
Y119773*
X91203*
G75*
G02X88774Y124773I3933J5000*
G01*
G75*
G02X91203Y129773I6362*
G01*
G37*
X179660D02*
G36*
X178959D01*
Y126500*
X179660*
Y129773*
G37*
X189660D02*
G36*
X188959D01*
Y126500*
X189660*
Y129773*
G37*
X199660D02*
G36*
X198959D01*
Y126500*
X199660*
Y129773*
G37*
X209660D02*
G36*
X208959D01*
Y126500*
X209660*
Y129773*
G37*
X219660D02*
G36*
X218959D01*
Y126500*
X219660*
Y129773*
G37*
X229660D02*
G36*
X228959D01*
Y126500*
X229660*
Y129773*
G37*
X239660D02*
G36*
X238959D01*
Y126500*
X239660*
Y129773*
G37*
X249660D02*
G36*
X248959D01*
Y126500*
X249660*
Y129773*
G37*
X259660D02*
G36*
X258959D01*
Y126500*
X259660*
Y129773*
G37*
X269660D02*
G36*
X268959D01*
Y126500*
X269660*
Y129773*
G37*
X279660D02*
G36*
X278959D01*
Y126500*
X279660*
Y129773*
G37*
X289660D02*
G36*
X288959D01*
Y126500*
X289660*
Y129773*
G37*
X299660D02*
G36*
X298959D01*
Y126500*
X299660*
Y129773*
G37*
X319549D02*
G36*
X308959D01*
Y126500*
X310348*
G75*
G02X311248Y125600J-900*
G01*
Y119773*
X319549*
G75*
G02X317121Y124773I3933J5000*
G01*
G75*
G02X319549Y129773I6362*
G01*
G37*
X337248D02*
G36*
X327416D01*
G75*
G02X329844Y124773I-3933J-5000*
G01*
G75*
G02X327416Y119773I-6362*
G01*
X337248*
Y129773*
G37*
X351548D02*
G36*
Y119773D01*
X353331*
Y129773*
X351548*
G37*
X80507Y187549D02*
G36*
X79198D01*
G75*
G02X79698Y185600I-3550J-1949*
G01*
G75*
G02X76951Y181765I-4050*
G01*
X77542*
Y176994*
X72770*
Y181765*
X74345*
G75*
G02X71598Y185600I1303J3835*
G01*
G75*
G02X72098Y187549I4050*
G01*
X37398*
Y186350*
X28898*
Y187549*
X18311*
G75*
G02X16543Y186650I-2664J3052*
G01*
G75*
G02X16548Y186556I-792J-94*
G01*
G75*
G02Y186550I-817J-3*
G01*
Y186550*
Y186542*
Y184658*
Y184650*
Y184650*
G75*
G02Y184644I-817J-3*
G01*
G75*
G02X16543Y184550I-797*
G01*
G75*
G02X19111Y182700I-895J-3951*
G01*
X28898*
Y184850*
X37398*
Y182700*
X52463*
Y182850*
X62762*
Y178350*
X62263*
Y177700*
X63754*
Y177986*
X68526*
Y173214*
X63754*
Y173500*
X62263*
Y172850*
X62762*
Y168350*
X52463*
Y168500*
X37398*
Y166350*
X28898*
Y168500*
X19111*
G75*
G02X16543Y166650I-3464J2101*
G01*
G75*
G02X16548Y166556I-792J-94*
G01*
G75*
G02Y166550I-817J-3*
G01*
Y166550*
Y166542*
Y164658*
Y164650*
Y164650*
G75*
G02Y164644I-817J-3*
G01*
G75*
G02X16543Y164550I-797*
G01*
G75*
G02X19111Y162700I-895J-3951*
G01*
X28898*
Y164850*
X37398*
Y162700*
X52746*
Y162850*
X63046*
Y158350*
X62546*
Y157700*
X63754*
Y157986*
X68526*
Y153214*
X63754*
Y153500*
X62546*
Y152850*
X63046*
Y148350*
X52746*
Y148500*
X37398*
Y146350*
X28898*
Y148500*
X19111*
G75*
G02X17832Y147189I-3466J2102*
G01*
X21021Y144000*
X48146*
G75*
G02X48784Y143736I2J-899*
G01*
X60891Y131630*
Y141792*
G75*
G02X61552Y143389I2258J0*
G01*
X71551Y153388*
G75*
G02X72770Y154018I1596J-1593*
G01*
Y154206*
X77542*
Y149435*
X73983*
X65406Y140857*
Y129773*
X68391*
Y138100*
G75*
G02X69052Y139697I2258J0*
G01*
X80891Y151535*
Y167165*
X78513Y169543*
X77542*
Y169435*
X76951*
G75*
G02X79698Y165600I-1303J-3835*
G01*
G75*
G02X76951Y161765I-4050*
G01*
X77542*
Y156994*
X72770*
Y161765*
X74345*
G75*
G02X71598Y165600I1303J3835*
G01*
G75*
G02X74345Y169435I4050*
G01*
X72770*
Y174206*
X77542*
Y174057*
X79448*
G75*
G02X81045Y173396I0J-2258*
G01*
X84744Y169697*
G75*
G02X85406Y168100I-1596J-1597*
G01*
Y150600*
G75*
G02X84744Y149003I-2258J0*
G01*
X72906Y137165*
Y129773*
X75891*
Y135600*
G75*
G02X76552Y137197I2258J0*
G01*
X88391Y149035*
Y179665*
X80507Y187549*
G37*
X351548Y129773D02*
G36*
X353331D01*
Y187549*
X330632*
G75*
G02X317908I-6362*
G01*
X86892*
X92244Y182197*
G75*
G02X92906Y180600I-1596J-1597*
G01*
Y148100*
G75*
G02X92244Y146503I-2258J0*
G01*
X80406Y134665*
Y129773*
X91203*
G75*
G02X99070I3933J-5000*
G01*
X109660*
Y134423*
X118959*
Y129773*
X119660*
Y134423*
X128959*
Y129773*
X129660*
Y134423*
X138959*
Y129773*
X139660*
Y134423*
X148959*
Y129773*
X149660*
Y134423*
X158959*
Y129773*
X159660*
Y134423*
X168959*
Y129773*
X169660*
Y134423*
X178959*
Y129773*
X179660*
Y134423*
X188959*
Y129773*
X189660*
Y134423*
X198959*
Y129773*
X199660*
Y134423*
X208959*
Y129773*
X209660*
Y134423*
X218959*
Y129773*
X219660*
Y134423*
X228959*
Y129773*
X229660*
Y134423*
X238959*
Y129773*
X239660*
Y134423*
X248959*
Y129773*
X249660*
Y134423*
X258959*
Y129773*
X259660*
Y134423*
X268959*
Y129773*
X269660*
Y134423*
X278959*
Y129773*
X279660*
Y134423*
X288959*
Y129773*
X289660*
Y134423*
X298959*
Y129773*
X299660*
Y134423*
X308959*
Y129773*
X319549*
G75*
G02X327416I3933J-5000*
G01*
X337248*
Y132727*
X330275Y139700*
X310650*
G75*
G02X310012Y139964I-2J899*
G01*
X307512Y142464*
G75*
G02X307248Y143100I634J636*
G01*
Y143100*
Y143100*
Y143102*
Y148350*
X305248*
Y145600*
G75*
G02X304633Y144115I-2102J0*
G01*
X299633Y139115*
G75*
G02X298146Y138500I-1485J1486*
G01*
X237772*
G75*
G02X230259Y140600I-3463J2100*
G01*
G75*
G02X237772Y142700I4050*
G01*
X297278*
X301048Y146470*
Y157137*
G75*
G02X299098Y160600I2099J3463*
G01*
Y160600*
G75*
G02X307198I4050*
G01*
Y160600*
G75*
G02X305248Y157137I-4049*
G01*
Y152850*
X307248*
Y163098*
Y163100*
Y163100*
Y163100*
G75*
G02X307512Y163736I898*
G01*
X310012Y166236*
G75*
G02X310650Y166500I636J-635*
G01*
X348146*
G75*
G02X348784Y166236I2J-899*
G01*
X351284Y163736*
G75*
G02X351548Y163100I-634J-636*
G01*
Y163100*
Y163100*
Y163098*
Y129773*
G37*
X28898Y187549D02*
G36*
Y188500D01*
X19111*
G75*
G02X18311Y187549I-3464J2102*
G01*
X28898*
G37*
Y203100D02*
G36*
X18834D01*
G75*
G02X19111Y202700I-3187J-2501*
G01*
X28898*
Y203100*
G37*
X86892Y187549D02*
G36*
X317908D01*
G75*
G02X330632I6362*
G01*
X353331*
Y203100*
X295789*
G75*
G02X272042I-11874*
G01*
X78834*
G75*
G02X76951Y201765I-3187J2500*
G01*
X77542*
Y196994*
X72770*
Y201765*
X74345*
G75*
G02X72461Y203100I1302J3834*
G01*
X37398*
Y202700*
X52894*
Y202850*
X63195*
Y198350*
X62694*
Y197700*
X63754*
Y197986*
X68526*
Y193214*
X63754*
Y193500*
X62694*
Y192850*
X63195*
Y188350*
X52894*
Y188500*
X37398*
Y187549*
X72098*
G75*
G02X74345Y189435I3550J-1949*
G01*
X72770*
Y194206*
X77542*
Y194057*
X79448*
G75*
G02X81045Y193396I0J-2258*
G01*
X86892Y187549*
G37*
X80507D02*
G36*
X78513Y189543D01*
X77542*
Y189435*
X76951*
G75*
G02X79198Y187549I-1303J-3835*
G01*
X80507*
G37*
X126548Y218651D02*
G36*
Y210602D01*
Y210600*
Y210600*
Y210600*
G75*
G02X126284Y209964I-898*
G01*
X121284Y204964*
G75*
G02X120646Y204700I-636J635*
G01*
X113150*
G75*
G02X112512Y204964I-2J899*
G01*
X107775Y209700*
X21021*
X16548Y205227*
Y204658*
Y204650*
Y204650*
G75*
G02Y204644I-817J-3*
G01*
G75*
G02X16543Y204550I-797*
G01*
G75*
G02X18834Y203100I-895J-3951*
G01*
X28898*
Y204850*
X37398*
Y203100*
X72461*
G75*
G02X71598Y205600I3186J2500*
G01*
Y205600*
G75*
G02X79698I4050*
G01*
G75*
G02X78834Y203100I-4050J0*
G01*
X272042*
G75*
G02X295789I11874*
G01*
X353331*
Y218651*
X330632*
G75*
G02X317908I-6362*
G01*
X126548*
G37*
G36*
X317908*
G75*
G02X330632I6362*
G01*
X353331*
Y265550*
X2100*
Y223325*
X2512Y223736*
X5012Y226236*
G75*
G02X5650Y226500I636J-635*
G01*
X107775*
X112512Y231236*
G75*
G02X113150Y231500I636J-635*
G01*
X120646*
G75*
G02X121284Y231236I2J-899*
G01*
X126284Y226236*
G75*
G02X126548Y225600I-634J-636*
G01*
Y225600*
Y225600*
Y225598*
Y218651*
G37*
D02*
D111*
X21140Y59320D03*
Y66880D03*
X30156Y63100D03*
X46140D03*
X55156Y59320D03*
Y66880D03*
X66140Y155600D03*
Y175600D03*
Y195600D03*
X75156Y151820D03*
Y159380D03*
Y171820D03*
Y179380D03*
Y191820D03*
Y199380D03*
D02*
D112*
X25372Y308608D03*
Y478100D03*
Y520423D03*
X45372Y308608D03*
Y478100D03*
Y520423D03*
D02*
D113*
X324270Y187549D03*
Y218651D03*
D02*
D114*
X283916Y203100D03*
D02*
D115*
X129585Y384891D03*
Y427214D03*
X281160Y384891D03*
Y416387D03*
D02*
D116*
X275648Y41663D03*
Y49537D03*
X286711Y298100D03*
X294585D03*
D02*
D117*
X227148Y38100D03*
Y43100D03*
Y48100D03*
Y53100D03*
Y58100D03*
Y63100D03*
Y68100D03*
Y73100D03*
X249148Y38100D03*
Y43100D03*
Y48100D03*
Y53100D03*
Y58100D03*
Y63100D03*
Y68100D03*
Y73100D03*
D02*
D118*
X271836Y68218D03*
Y82982D03*
D02*
D119*
X114309Y119773D03*
Y129773D03*
X124309Y119773D03*
Y129773D03*
X134309Y119773D03*
Y129773D03*
X144309Y119773D03*
Y129773D03*
X154309Y119773D03*
Y129773D03*
X164309Y119773D03*
Y129773D03*
X174309Y119773D03*
Y129773D03*
X184309Y119773D03*
Y129773D03*
X194309Y119773D03*
Y129773D03*
X204309Y119773D03*
Y129773D03*
X214309Y119773D03*
Y129773D03*
X224309Y119773D03*
Y129773D03*
X234309Y119773D03*
Y129773D03*
X244309Y119773D03*
Y129773D03*
X254309Y119773D03*
Y129773D03*
X264309Y119773D03*
Y129773D03*
X274309Y119773D03*
Y129773D03*
X284309Y119773D03*
Y129773D03*
X294309Y119773D03*
Y129773D03*
X304309Y119773D03*
Y129773D03*
D02*
D120*
X15648Y150600D03*
Y160600D03*
Y170600D03*
Y180600D03*
Y190600D03*
Y200600D03*
X18148Y50600D03*
X33148Y45550D03*
X43148D03*
X58148Y75600D03*
X68148Y23100D03*
X75648Y165600D03*
Y185600D03*
Y205600D03*
X118148Y213100D03*
Y223100D03*
X164309Y108100D03*
X174309D03*
X184309D03*
X190548Y88100D03*
X194348Y108100D03*
X198148Y88100D03*
X204348Y108100D03*
X214348D03*
X215648Y78100D03*
X223148Y30600D03*
X230648D03*
X234309Y140600D03*
X240648Y80600D03*
Y88100D03*
X245648Y30600D03*
X283148Y63100D03*
X284309Y108100D03*
X294309D03*
X303148Y160600D03*
X313148D03*
D02*
D124*
X78148Y376812D03*
Y465788D03*
X0Y0D02*
M02*
