G04 EasyPC Gerber Version 20.0.2 Build 4112 *
%FSLAX35Y35*%
%MOIN*%
%ADD94R,0.03800X0.04500*%
%ADD86R,0.07800X0.07800*%
%ADD135R,0.08600X0.08600*%
%ADD109C,0.01200*%
%ADD132C,0.06906*%
%ADD82O,0.12000X0.07000*%
%ADD133R,0.09000X0.03500*%
%ADD95R,0.04500X0.03800*%
%ADD127R,0.04071X0.04071*%
%ADD134R,0.08874X0.05921*%
%ADD129C,0.12024*%
%ADD131C,0.13992*%
%ADD128C,0.14780*%
%ADD136C,0.16748*%
%ADD130C,0.23047*%
X0Y0D02*
D02*
D82*
X143148Y30600D03*
Y40600D03*
Y50600D03*
Y60600D03*
Y70600D03*
Y80600D03*
Y90600D03*
X173148Y30600D03*
Y40600D03*
Y50600D03*
Y60600D03*
Y70600D03*
Y80600D03*
Y90600D03*
D02*
D86*
X33148Y23100D03*
Y150600D03*
Y160600D03*
Y170600D03*
Y180600D03*
Y190600D03*
Y200600D03*
X43148Y23100D03*
X53148D03*
D02*
D94*
X15648Y60550D03*
Y65650D03*
X25648Y45550D03*
Y50650D03*
X50648Y45550D03*
Y50650D03*
X60648Y60550D03*
Y65650D03*
X191848Y95550D03*
Y100650D03*
X196848Y95550D03*
Y100650D03*
X283148Y73050D03*
Y78150D03*
D02*
D95*
X55063Y170600D03*
Y180600D03*
X55346Y150600D03*
Y160600D03*
X55494Y190600D03*
Y200600D03*
X60163Y170600D03*
Y180600D03*
X60446Y150600D03*
Y160600D03*
X60594Y190600D03*
Y200600D03*
X126798Y143100D03*
Y148100D03*
X131898Y143100D03*
Y148100D03*
X210598Y58100D03*
Y70600D03*
X215698Y58100D03*
Y70600D03*
X223598Y80600D03*
Y85600D03*
X228698Y80600D03*
Y85600D03*
X247610Y80600D03*
Y85600D03*
X252710Y80600D03*
Y85600D03*
X305598Y150600D03*
X310698D03*
D02*
D109*
X16348Y600D02*
G75*
G03X600Y16348I-15748D01*
G01*
Y535840*
G75*
G03X16348Y551588J15748*
G01*
X339083*
G75*
G03X354831Y535840I15748*
G01*
Y16348*
G75*
G03X339083Y600J-15748*
G01*
X16348*
D02*
D127*
X21140Y59320D03*
Y66880D03*
X30156Y63100D03*
X46140D03*
X55156Y59320D03*
Y66880D03*
X66140Y155600D03*
Y175600D03*
Y195600D03*
X75156Y151820D03*
Y159380D03*
Y171820D03*
Y179380D03*
Y191820D03*
Y199380D03*
D02*
D128*
X25372Y308608D03*
Y478100D03*
Y520423D03*
X45372Y308608D03*
Y478100D03*
Y520423D03*
D02*
D129*
X95136Y34222D03*
Y124773D03*
X323483Y34222D03*
Y124773D03*
X324270Y187549D03*
Y218651D03*
D02*
D130*
X283916Y203100D03*
D02*
D131*
X129585Y384891D03*
Y427214D03*
X281160Y384891D03*
Y416387D03*
D02*
D132*
X275648Y41663D03*
Y49537D03*
X286711Y298100D03*
X294585D03*
D02*
D133*
X227148Y38100D03*
Y43100D03*
Y48100D03*
Y53100D03*
Y58100D03*
Y63100D03*
Y68100D03*
Y73100D03*
X249148Y38100D03*
Y43100D03*
Y48100D03*
Y53100D03*
Y58100D03*
Y63100D03*
Y68100D03*
Y73100D03*
D02*
D134*
X271836Y68218D03*
Y82982D03*
D02*
D135*
X114309Y119773D03*
Y129773D03*
X124309Y119773D03*
Y129773D03*
X134309Y119773D03*
Y129773D03*
X144309Y119773D03*
Y129773D03*
X154309Y119773D03*
Y129773D03*
X164309Y119773D03*
Y129773D03*
X174309Y119773D03*
Y129773D03*
X184309Y119773D03*
Y129773D03*
X194309Y119773D03*
Y129773D03*
X204309Y119773D03*
Y129773D03*
X214309Y119773D03*
Y129773D03*
X224309Y119773D03*
Y129773D03*
X234309Y119773D03*
Y129773D03*
X244309Y119773D03*
Y129773D03*
X254309Y119773D03*
Y129773D03*
X264309Y119773D03*
Y129773D03*
X274309Y119773D03*
Y129773D03*
X284309Y119773D03*
Y129773D03*
X294309Y119773D03*
Y129773D03*
X304309Y119773D03*
Y129773D03*
D02*
D136*
X78148Y376812D03*
Y465788D03*
X0Y0D02*
M02*
