G04 EasyPC Gerber Version 20.0.2 Build 4112 *
%FSLAX35Y35*%
%MOIN*%
%ADD10C,0.00500*%
%ADD125C,0.00787*%
%ADD12C,0.01000*%
%ADD109C,0.01200*%
X0Y0D02*
D02*
D10*
X6585Y70600D02*
X10335D01*
Y68413*
X10023Y67787*
X9398Y67475*
X8773Y67787*
X8461Y68413*
Y70600*
Y68413D02*
X6585Y67475D01*
Y64975D02*
Y63725D01*
Y64350D02*
X10335D01*
X9711Y64975*
X6898Y60287D02*
X6585Y59663D01*
Y59037*
X6898Y58413*
X7523Y58100*
X9398*
X10023Y58413*
X10335Y59037*
Y59663*
X10023Y60287*
X9398Y60600*
X7523*
X6898Y60287*
X10023Y58413*
X6585Y54037D02*
X10335D01*
X7835Y55600*
Y53100*
X8148Y39037D02*
Y42787D01*
X10335*
X10961Y42475*
X11273Y41850*
X10961Y41225*
X10335Y40913*
X8148*
X10335D02*
X11273Y39037D01*
X13773D02*
X15023D01*
X14398D02*
Y42787D01*
X13773Y42163*
X18461Y39350D02*
X19085Y39037D01*
X19711*
X20335Y39350*
X20648Y39975*
Y41850*
X20335Y42475*
X19711Y42787*
X19085*
X18461Y42475*
X18148Y41850*
Y39975*
X18461Y39350*
X20335Y42475*
X23461Y39350D02*
X24085Y39037D01*
X24711*
X25335Y39350*
X25648Y39975*
X25335Y40600*
X24711Y40913*
X24085*
X24711D02*
X25335Y41225D01*
X25648Y41850*
X25335Y42475*
X24711Y42787*
X24085*
X23461Y42475*
X14348Y63400D02*
X16948D01*
Y62800*
X14348*
Y63400*
G36*
X16948*
Y62800*
X14348*
Y63400*
G37*
X18498Y532812D02*
X18185Y532500D01*
X17560Y532187*
X16622*
X15998Y532500*
X15685Y532812*
X15372Y533437*
Y534687*
X15685Y535312*
X15998Y535625*
X16622Y535937*
X17560*
X18185Y535625*
X18498Y535312*
X20372Y533437D02*
Y534687D01*
X20685Y535312*
X20998Y535625*
X21622Y535937*
X22248*
X22872Y535625*
X23185Y535312*
X23498Y534687*
Y533437*
X23185Y532812*
X22872Y532500*
X22248Y532187*
X21622*
X20998Y532500*
X20685Y532812*
X20372Y533437*
X25372Y532187D02*
Y535937D01*
X28498Y532187*
Y535937*
X30372Y532187D02*
Y535937D01*
X33498Y532187*
Y535937*
X35998Y532187D02*
X37248D01*
X36622D02*
Y535937D01*
X35998Y535312*
X40685Y532500D02*
X41310Y532187D01*
X41935*
X42560Y532500*
X42872Y533125*
Y535000*
X42560Y535625*
X41935Y535937*
X41310*
X40685Y535625*
X40372Y535000*
Y533125*
X40685Y532500*
X42560Y535625*
X45998Y532187D02*
X47248D01*
X46622D02*
Y535937D01*
X45998Y535312*
X25335Y90600D02*
X26585D01*
X27211Y90287*
X27523Y89975*
X27835Y89350*
Y88725*
X27523Y88100*
X27211Y87787*
X26585Y87475*
X25335*
X24711Y87787*
X24398Y88100*
X24085Y88725*
Y89350*
X24398Y89975*
X24711Y90287*
X25335Y90600*
X25023Y88413D02*
X24085Y87475D01*
Y84975D02*
Y83725D01*
Y84350D02*
X27835D01*
X27211Y84975*
X24398Y80287D02*
X24085Y79663D01*
Y79037*
X24398Y78413*
X25023Y78100*
X26898*
X27523Y78413*
X27835Y79037*
Y79663*
X27523Y80287*
X26898Y80600*
X25023*
X24398Y80287*
X27523Y78413*
X24085Y73100D02*
Y75600D01*
X26273Y73413*
X26898Y73100*
X27523Y73413*
X27835Y74037*
Y74975*
X27523Y75600*
X26273Y209663D02*
X25961Y209350D01*
X25335Y209037*
X24398*
X23773Y209350*
X23461Y209663*
X23148Y210287*
Y211537*
X23461Y212163*
X23773Y212475*
X24398Y212787*
X25335*
X25961Y212475*
X26273Y212163*
X28148Y210287D02*
Y211537D01*
X28461Y212163*
X28773Y212475*
X29398Y212787*
X30023*
X30648Y212475*
X30961Y212163*
X31273Y211537*
Y210287*
X30961Y209663*
X30648Y209350*
X30023Y209037*
X29398*
X28773Y209350*
X28461Y209663*
X28148Y210287*
X33148Y209037D02*
Y212787D01*
X36273Y209037*
Y212787*
X38148Y209037D02*
Y212787D01*
X41273Y209037*
Y212787*
X43773Y209037D02*
X45023D01*
X44398D02*
Y212787D01*
X43773Y212163*
X48461Y209350D02*
X49085Y209037D01*
X49711*
X50335Y209350*
X50648Y209975*
Y211850*
X50335Y212475*
X49711Y212787*
X49085*
X48461Y212475*
X48148Y211850*
Y209975*
X48461Y209350*
X50335Y212475*
X53148Y209350D02*
X53773Y209037D01*
X54711*
X55335Y209350*
X55648Y209975*
Y210287*
X55335Y210913*
X54711Y211225*
X53148*
Y212787*
X55648*
X23148Y254037D02*
Y257787D01*
Y255913D02*
X26273D01*
Y254037D02*
Y257787D01*
X28148Y254975D02*
X28461Y254350D01*
X29085Y254037*
X29711*
X30335Y254350*
X30648Y254975*
Y255600*
X30335Y256225*
X29711Y256537*
X29085*
X28461Y256225*
X28148Y255600*
Y254975*
X33773Y256537D02*
X35023D01*
X34398Y257163D02*
Y254350D01*
X34711Y254037*
X35023*
X35335Y254350*
X38148Y254037D02*
Y257787D01*
X40335*
X40961Y257475*
X41273Y256850*
X40961Y256225*
X40335Y255913*
X38148*
X44398Y254037D02*
Y256537D01*
Y257475D02*
X53148Y255287*
X55648D01*
X63148Y254037D02*
Y257787D01*
X65335*
X65961Y257475*
X66273Y256850*
X65961Y256225*
X65335Y255913*
X63148*
X65335D02*
X66273Y254037D01*
X70648Y254350D02*
X70335Y254037D01*
X69711*
X69085*
X68461Y254350*
X68148Y254975*
Y255913*
X68461Y256225*
X69085Y256537*
X69711*
X70335Y256225*
X70648Y255913*
Y255600*
X70335Y255287*
X69711Y254975*
X69085*
X68461Y255287*
X68148Y255600*
X74398Y254037D02*
Y257163D01*
X74711Y257475*
X75023*
X75335Y257163*
X73773Y256225D02*
X75023D01*
X79711Y254037D02*
X79398D01*
Y257787*
X83148Y254975D02*
X83461Y254350D01*
X84085Y254037*
X84711*
X85335Y254350*
X85648Y254975*
Y255600*
X85335Y256225*
X84711Y256537*
X84085*
X83461Y256225*
X83148Y255600*
Y254975*
X88148Y256537D02*
Y254350D01*
X88461Y254037*
X89085*
X89398Y254350*
Y255287*
Y254350D02*
X89711Y254037D01*
X90335*
X90648Y254350*
Y256537*
X98148Y255287D02*
Y256537D01*
X98461Y257163*
X98773Y257475*
X99398Y257787*
X100023*
X100648Y257475*
X100961Y257163*
X101273Y256537*
Y255287*
X100961Y254663*
X100648Y254350*
X100023Y254037*
X99398*
X98773Y254350*
X98461Y254663*
X98148Y255287*
X103148Y256537D02*
X104398Y254037D01*
X105648Y256537*
X110648Y254350D02*
X110335Y254037D01*
X109711*
X109085*
X108461Y254350*
X108148Y254975*
Y255913*
X108461Y256225*
X109085Y256537*
X109711*
X110335Y256225*
X110648Y255913*
Y255600*
X110335Y255287*
X109711Y254975*
X109085*
X108461Y255287*
X108148Y255600*
X113148Y254037D02*
Y256537D01*
Y255600D02*
X113461Y256225D01*
X114085Y256537*
X114711*
X115335Y256225*
X115648Y255600*
Y254037*
X126273Y254663D02*
X125961Y254350D01*
X125335Y254037*
X124398*
X123773Y254350*
X123461Y254663*
X123148Y255287*
Y256537*
X123461Y257163*
X123773Y257475*
X124398Y257787*
X125335*
X125961Y257475*
X126273Y257163*
X128148Y254975D02*
X128461Y254350D01*
X129085Y254037*
X129711*
X130335Y254350*
X130648Y254975*
Y255600*
X130335Y256225*
X129711Y256537*
X129085*
X128461Y256225*
X128148Y255600*
Y254975*
X133148Y254037D02*
Y256537D01*
Y255600D02*
X133461Y256225D01*
X134085Y256537*
X134711*
X135335Y256225*
X135648Y255600*
Y254037*
X138773Y256537D02*
X140023D01*
X139398Y257163D02*
Y254350D01*
X139711Y254037*
X140023*
X140335Y254350*
X143148Y254037D02*
Y256537D01*
Y255600D02*
X143461Y256225D01*
X144085Y256537*
X144711*
X145335Y256225*
X148148Y254975D02*
X148461Y254350D01*
X149085Y254037*
X149711*
X150335Y254350*
X150648Y254975*
Y255600*
X150335Y256225*
X149711Y256537*
X149085*
X148461Y256225*
X148148Y255600*
Y254975*
X154711Y254037D02*
X154398D01*
Y257787*
X159711Y254037D02*
X159398D01*
Y257787*
X165648Y254350D02*
X165335Y254037D01*
X164711*
X164085*
X163461Y254350*
X163148Y254975*
Y255913*
X163461Y256225*
X164085Y256537*
X164711*
X165335Y256225*
X165648Y255913*
Y255600*
X165335Y255287*
X164711Y254975*
X164085*
X163461Y255287*
X163148Y255600*
X168148Y254037D02*
Y256537D01*
Y255600D02*
X168461Y256225D01*
X169085Y256537*
X169711*
X170335Y256225*
X180335Y254037D02*
X179711Y254975D01*
Y257163*
X180335Y257787*
X183148Y256537D02*
X184398Y254037D01*
X185648Y256537*
X188773Y254037D02*
X190023D01*
X189398D02*
Y257787D01*
X188773Y257163*
X193461Y254037D02*
X193773Y254350D01*
X193461Y254663*
X193148Y254350*
X193461Y254037*
X198461Y254350D02*
X199085Y254037D01*
X199711*
X200335Y254350*
X200648Y254975*
Y256850*
X200335Y257475*
X199711Y257787*
X199085*
X198461Y257475*
X198148Y256850*
Y254975*
X198461Y254350*
X200335Y257475*
X204085Y254037D02*
X204711Y254975D01*
Y257163*
X204085Y257787*
X23148Y248037D02*
Y251787D01*
X25335*
X25961Y251475*
X26273Y250850*
X25961Y250225*
X25335Y249913*
X23148*
X30648Y248350D02*
X30335Y248037D01*
X29711*
X29085*
X28461Y248350*
X28148Y248975*
Y249913*
X28461Y250225*
X29085Y250537*
X29711*
X30335Y250225*
X30648Y249913*
Y249600*
X30335Y249287*
X29711Y248975*
X29085*
X28461Y249287*
X28148Y249600*
X33773Y250537D02*
X35023D01*
X34398Y251163D02*
Y248350D01*
X34711Y248037*
X35023*
X35335Y248350*
X40648D02*
X40335Y248037D01*
X39711*
X39085*
X38461Y248350*
X38148Y248975*
Y249913*
X38461Y250225*
X39085Y250537*
X39711*
X40335Y250225*
X40648Y249913*
Y249600*
X40335Y249287*
X39711Y248975*
X39085*
X38461Y249287*
X38148Y249600*
X48148Y248037D02*
Y251787D01*
X50335*
X50961Y251475*
X51273Y250850*
X50961Y250225*
X50335Y249913*
X48148*
X50335D02*
X51273Y248037D01*
X55648Y248350D02*
X55335Y248037D01*
X54711*
X54085*
X53461Y248350*
X53148Y248975*
Y249913*
X53461Y250225*
X54085Y250537*
X54711*
X55335Y250225*
X55648Y249913*
Y249600*
X55335Y249287*
X54711Y248975*
X54085*
X53461Y249287*
X53148Y249600*
X58148Y248350D02*
X58773Y248037D01*
X60023*
X60648Y248350*
Y248975*
X60023Y249287*
X58773*
X58148Y249600*
Y250225*
X58773Y250537*
X60023*
X60648Y250225*
X63773Y250537D02*
X65023D01*
X64398Y251163D02*
Y248350D01*
X64711Y248037*
X65023*
X65335Y248350*
X68148Y250225D02*
X68773Y250537D01*
X69711*
X70335Y250225*
X70648Y249600*
Y248663*
X70335Y248350*
X69711Y248037*
X69085*
X68461Y248350*
X68148Y248663*
Y248975*
X68461Y249287*
X69085Y249600*
X69711*
X70335Y249287*
X70648Y248975*
Y248663D02*
Y248037D01*
X74711D02*
X74398D01*
Y251787*
X79711Y248037D02*
X79398D01*
Y251787*
X91273Y248037D02*
X89711Y249600D01*
X91273Y251163*
X93148Y250537D02*
Y247100D01*
Y248975D02*
X93461Y248350D01*
X94085Y248037*
X94711*
X95335Y248350*
X95648Y248975*
Y249600*
X95335Y250225*
X94711Y250537*
X94085*
X93461Y250225*
X93148Y249600*
Y248975*
X100648Y248350D02*
X100335Y248037D01*
X99711*
X99085*
X98461Y248350*
X98148Y248975*
Y249913*
X98461Y250225*
X99085Y250537*
X99711*
X100335Y250225*
X100648Y249913*
Y249600*
X100335Y249287*
X99711Y248975*
X99085*
X98461Y249287*
X98148Y249600*
X103773Y250537D02*
X105023D01*
X104398Y251163D02*
Y248350D01*
X104711Y248037*
X105023*
X105335Y248350*
X110648D02*
X110335Y248037D01*
X109711*
X109085*
X108461Y248350*
X108148Y248975*
Y249913*
X108461Y250225*
X109085Y250537*
X109711*
X110335Y250225*
X110648Y249913*
Y249600*
X110335Y249287*
X109711Y248975*
X109085*
X108461Y249287*
X108148Y249600*
X115961Y248350D02*
X115335Y248037D01*
X114085*
X113461Y248350*
X113148Y248975*
Y250850*
X113461Y251475*
X114085Y251787*
X115023*
X115648Y251475*
X115961Y250850*
Y249287*
X115648Y248975*
X115335Y249287*
Y250537*
X115023Y250850*
X114085*
X113773Y250537*
Y249287*
X114085Y248975*
X115023*
X115335Y249287*
X118148Y248037D02*
Y250537D01*
Y249600D02*
X118461Y250225D01*
X119085Y250537*
X119711*
X120335Y250225*
X125648Y248350D02*
X125335Y248037D01*
X124711*
X124085*
X123461Y248350*
X123148Y248975*
Y249913*
X123461Y250225*
X124085Y250537*
X124711*
X125335Y250225*
X125648Y249913*
Y249600*
X125335Y249287*
X124711Y248975*
X124085*
X123461Y249287*
X123148Y249600*
X128148Y248350D02*
X128773Y248037D01*
X130023*
X130648Y248350*
Y248975*
X130023Y249287*
X128773*
X128148Y249600*
Y250225*
X128773Y250537*
X130023*
X130648Y250225*
X133773Y250537D02*
X135023D01*
X134398Y251163D02*
Y248350D01*
X134711Y248037*
X135023*
X135335Y248350*
X138148Y250225D02*
X138773Y250537D01*
X139711*
X140335Y250225*
X140648Y249600*
Y248663*
X140335Y248350*
X139711Y248037*
X139085*
X138461Y248350*
X138148Y248663*
Y248975*
X138461Y249287*
X139085Y249600*
X139711*
X140335Y249287*
X140648Y248975*
Y248663D02*
Y248037D01*
X144711D02*
X144398D01*
Y251787*
X149711Y248037D02*
X149398D01*
Y251787*
X153461Y248037D02*
X153773Y248350D01*
X153461Y248663*
X153148Y248350*
X153461Y248037*
X158148D02*
Y250537D01*
Y249600D02*
X158461Y250225D01*
X159085Y250537*
X159711*
X160335Y250225*
X160648Y249600*
Y248037*
X165648Y248350D02*
X165335Y248037D01*
X164711*
X164085*
X163461Y248350*
X163148Y248975*
Y249913*
X163461Y250225*
X164085Y250537*
X164711*
X165335Y250225*
X165648Y249913*
Y249600*
X165335Y249287*
X164711Y248975*
X164085*
X163461Y249287*
X163148Y249600*
X168773Y250537D02*
X170023D01*
X169398Y251163D02*
Y248350D01*
X169711Y248037*
X170023*
X170335Y248350*
X174711Y248037D02*
X176273Y249600D01*
X174711Y251163*
X23148Y242037D02*
Y245787D01*
Y243600D02*
X23461Y244225D01*
X24085Y244537*
X24711*
X25335Y244225*
X25648Y243600*
Y242037*
X28773Y244537D02*
X30023D01*
X29398Y245163D02*
Y242350D01*
X29711Y242037*
X30023*
X30335Y242350*
X33773Y244537D02*
X35023D01*
X34398Y245163D02*
Y242350D01*
X34711Y242037*
X35023*
X35335Y242350*
X38148Y244537D02*
Y241100D01*
Y242975D02*
X38461Y242350D01*
X39085Y242037*
X39711*
X40335Y242350*
X40648Y242975*
Y243600*
X40335Y244225*
X39711Y244537*
X39085*
X38461Y244225*
X38148Y243600*
Y242975*
X43148Y242350D02*
X43773Y242037D01*
X45023*
X45648Y242350*
Y242975*
X45023Y243287*
X43773*
X43148Y243600*
Y244225*
X43773Y244537*
X45023*
X45648Y244225*
X49711Y242037D02*
X50023Y242350D01*
X49711Y242663*
X49398Y242350*
X49711Y242037*
Y243600D02*
X50023Y243913D01*
X49711Y244225*
X49398Y243913*
X49711Y243600*
X53148Y242037D02*
X56273Y245787D01*
X58148Y242037D02*
X61273Y245787D01*
X65648Y243600D02*
X65335Y244225D01*
X64711Y244537*
X64085*
X63461Y244225*
X63148Y243600*
Y243287*
X63461Y242663*
X64085Y242350*
X64711*
X65335Y242663*
X65648Y243287*
Y244537D02*
Y242037D01*
X65335Y241413*
X64711Y241100*
X63773*
X63148Y241413*
X69398Y242037D02*
Y244537D01*
Y245475D02*
X73773Y244537*
X75023D01*
X74398Y245163D02*
Y242350D01*
X74711Y242037*
X75023*
X75335Y242350*
X78148Y242037D02*
Y245787D01*
Y243600D02*
X78461Y244225D01*
X79085Y244537*
X79711*
X80335Y244225*
X80648Y243600*
Y242037*
X83148Y244537D02*
Y242975D01*
X83461Y242350*
X84085Y242037*
X84711*
X85335Y242350*
X85648Y242975*
Y244537D02*
Y242037D01*
X88148Y242975D02*
X88461Y242350D01*
X89085Y242037*
X89711*
X90335Y242350*
X90648Y242975*
Y243600*
X90335Y244225*
X89711Y244537*
X89085*
X88461Y244225*
X88148Y243600*
Y242037D02*
Y245787D01*
X93461Y242037D02*
X93773Y242350D01*
X93461Y242663*
X93148Y242350*
X93461Y242037*
X100648Y244225D02*
X100023Y244537D01*
X99085*
X98461Y244225*
X98148Y243600*
Y242975*
X98461Y242350*
X99085Y242037*
X100023*
X100648Y242350*
X103148Y242975D02*
X103461Y242350D01*
X104085Y242037*
X104711*
X105335Y242350*
X105648Y242975*
Y243600*
X105335Y244225*
X104711Y244537*
X104085*
X103461Y244225*
X103148Y243600*
Y242975*
X108148Y242037D02*
Y244537D01*
Y244225D02*
X108461Y244537D01*
X109085*
X109398Y244225*
Y243287*
Y244225D02*
X109711Y244537D01*
X110335*
X110648Y244225*
Y242037*
X113148D02*
X116273Y245787D01*
X118148Y244537D02*
Y241100D01*
Y242975D02*
X118461Y242350D01*
X119085Y242037*
X119711*
X120335Y242350*
X120648Y242975*
Y243600*
X120335Y244225*
X119711Y244537*
X119085*
X118461Y244225*
X118148Y243600*
Y242975*
X125648Y242350D02*
X125335Y242037D01*
X124711*
X124085*
X123461Y242350*
X123148Y242975*
Y243913*
X123461Y244225*
X124085Y244537*
X124711*
X125335Y244225*
X125648Y243913*
Y243600*
X125335Y243287*
X124711Y242975*
X124085*
X123461Y243287*
X123148Y243600*
X128773Y244537D02*
X130023D01*
X129398Y245163D02*
Y242350D01*
X129711Y242037*
X130023*
X130335Y242350*
X135648D02*
X135335Y242037D01*
X134711*
X134085*
X133461Y242350*
X133148Y242975*
Y243913*
X133461Y244225*
X134085Y244537*
X134711*
X135335Y244225*
X135648Y243913*
Y243600*
X135335Y243287*
X134711Y242975*
X134085*
X133461Y243287*
X133148Y243600*
X138148Y243287D02*
X140648D01*
X143148Y242037D02*
Y244537D01*
Y243600D02*
X143461Y244225D01*
X144085Y244537*
X144711*
X145335Y244225*
X150648Y242350D02*
X150335Y242037D01*
X149711*
X149085*
X148461Y242350*
X148148Y242975*
Y243913*
X148461Y244225*
X149085Y244537*
X149711*
X150335Y244225*
X150648Y243913*
Y243600*
X150335Y243287*
X149711Y242975*
X149085*
X148461Y243287*
X148148Y243600*
X153148Y242350D02*
X153773Y242037D01*
X155023*
X155648Y242350*
Y242975*
X155023Y243287*
X153773*
X153148Y243600*
Y244225*
X153773Y244537*
X155023*
X155648Y244225*
X158773Y244537D02*
X160023D01*
X159398Y245163D02*
Y242350D01*
X159711Y242037*
X160023*
X160335Y242350*
X163148Y244225D02*
X163773Y244537D01*
X164711*
X165335Y244225*
X165648Y243600*
Y242663*
X165335Y242350*
X164711Y242037*
X164085*
X163461Y242350*
X163148Y242663*
Y242975*
X163461Y243287*
X164085Y243600*
X164711*
X165335Y243287*
X165648Y242975*
Y242663D02*
Y242037D01*
X169711D02*
X169398D01*
Y245787*
X174711Y242037D02*
X174398D01*
Y245787*
X178148Y242037D02*
X181273Y245787D01*
X183148Y242037D02*
Y245787D01*
Y243913D02*
X186273D01*
Y242037D02*
Y245787D01*
X188148Y242975D02*
X188461Y242350D01*
X189085Y242037*
X189711*
X190335Y242350*
X190648Y242975*
Y243600*
X190335Y244225*
X189711Y244537*
X189085*
X188461Y244225*
X188148Y243600*
Y242975*
X193773Y244537D02*
X195023D01*
X194398Y245163D02*
Y242350D01*
X194711Y242037*
X195023*
X195335Y242350*
X198148Y242037D02*
Y245787D01*
X200335*
X200961Y245475*
X201273Y244850*
X200961Y244225*
X200335Y243913*
X198148*
X204398Y242037D02*
Y244537D01*
Y245475D02*
X26948Y47800*
X24348D01*
Y48400*
X26948*
Y47800*
G36*
X24348*
Y48400*
X26948*
Y47800*
G37*
X31273Y7163D02*
X30961Y6850D01*
X30335Y6537*
X29398*
X28773Y6850*
X28461Y7163*
X28148Y7787*
Y9037*
X28461Y9663*
X28773Y9975*
X29398Y10287*
X30335*
X30961Y9975*
X31273Y9663*
X33148Y7787D02*
Y9037D01*
X33461Y9663*
X33773Y9975*
X34398Y10287*
X35023*
X35648Y9975*
X35961Y9663*
X36273Y9037*
Y7787*
X35961Y7163*
X35648Y6850*
X35023Y6537*
X34398*
X33773Y6850*
X33461Y7163*
X33148Y7787*
X38148Y6537D02*
Y10287D01*
X41273Y6537*
Y10287*
X43148Y6537D02*
Y10287D01*
X46273Y6537*
Y10287*
X48773Y6537D02*
X50023D01*
X49398D02*
Y10287D01*
X48773Y9663*
X53461Y6850D02*
X54085Y6537D01*
X54711*
X55335Y6850*
X55648Y7475*
Y9350*
X55335Y9975*
X54711Y10287*
X54085*
X53461Y9975*
X53148Y9350*
Y7475*
X53461Y6850*
X55335Y9975*
X58461Y6850D02*
X59085Y6537D01*
X59711*
X60335Y6850*
X60648Y7475*
X60335Y8100*
X59711Y8413*
X59085*
X59711D02*
X60335Y8725D01*
X60648Y9350*
X60335Y9975*
X59711Y10287*
X59085*
X58461Y9975*
X28597Y69415D02*
Y56785D01*
X22699*
Y69415*
X25156*
Y68923*
X26140*
Y69415*
X28597*
X33751Y302092D02*
X37501D01*
Y298967*
X35626Y299592D02*
Y302092D01*
X33751D02*
Y298967D01*
X37501Y471387D02*
X33751D01*
Y468262*
Y513907D02*
X37501D01*
X33751Y510782*
X37501*
X47699Y56785D02*
Y69415D01*
X53597*
Y56785*
X51140*
Y57277*
X50156*
Y56785*
X47699*
X50335Y90600D02*
X51585D01*
X52211Y90287*
X52523Y89975*
X52835Y89350*
Y88725*
X52523Y88100*
X52211Y87787*
X51585Y87475*
X50335*
X49711Y87787*
X49398Y88100*
X49085Y88725*
Y89350*
X49398Y89975*
X49711Y90287*
X50335Y90600*
X50023Y88413D02*
X49085Y87475D01*
Y84975D02*
Y83725D01*
Y84350D02*
X52835D01*
X52211Y84975*
X49398Y80287D02*
X49085Y79663D01*
Y79037*
X49398Y78413*
X50023Y78100*
X51898*
X52523Y78413*
X52835Y79037*
Y79663*
X52523Y80287*
X51898Y80600*
X50023*
X49398Y80287*
X52523Y78413*
X49085Y74975D02*
Y73725D01*
Y74350D02*
X52835D01*
X52211Y74975*
X51948Y47800D02*
X49348D01*
Y48400*
X51948*
Y47800*
G36*
X49348*
Y48400*
X51948*
Y47800*
G37*
X55648Y46537D02*
Y50287D01*
X57835*
X58461Y49975*
X58773Y49350*
X58461Y48725*
X57835Y48413*
X55648*
X57835D02*
X58773Y46537D01*
X61273D02*
X62523D01*
X61898D02*
Y50287D01*
X61273Y49663*
X65961Y46850D02*
X66585Y46537D01*
X67211*
X67835Y46850*
X68148Y47475*
Y49350*
X67835Y49975*
X67211Y50287*
X66585*
X65961Y49975*
X65648Y49350*
Y47475*
X65961Y46850*
X67835Y49975*
X73148Y46537D02*
X70648D01*
X72835Y48725*
X73148Y49350*
X72835Y49975*
X72211Y50287*
X71273*
X70648Y49975*
X56199Y531250D02*
Y297781D01*
X14546*
Y531250*
X56199*
X57313Y169300D02*
Y171900D01*
X57913*
Y169300*
X57313*
G36*
Y171900*
X57913*
Y169300*
X57313*
G37*
Y179300D02*
Y181900D01*
X57913*
Y179300*
X57313*
G36*
Y181900*
X57913*
Y179300*
X57313*
G37*
X57596Y149300D02*
Y151900D01*
X58196*
Y149300*
X57596*
G36*
Y151900*
X58196*
Y149300*
X57596*
G37*
Y159300D02*
Y161900D01*
X58196*
Y159300*
X57596*
G36*
Y161900*
X58196*
Y159300*
X57596*
G37*
X57744Y189300D02*
Y191900D01*
X58344*
Y189300*
X57744*
G36*
Y191900*
X58344*
Y189300*
X57744*
G37*
Y199300D02*
Y201900D01*
X58344*
Y199300*
X57744*
G36*
Y201900*
X58344*
Y199300*
X57744*
G37*
X58463Y475879D02*
Y366721D01*
X97833*
Y475879*
X58463*
X59703Y311072D02*
X71514Y322883D01*
X59703Y326820D02*
X71514Y338631D01*
X59703Y342568D02*
X118758Y401623D01*
X59703Y358316D02*
X118758Y417371D01*
X59703Y374064D02*
X118758Y433119D01*
X59703Y389812D02*
X118758Y448867D01*
X59703Y405560D02*
X118758Y464615D01*
X59703Y421308D02*
X169939Y531544D01*
X59703Y437056D02*
X154191Y531544D01*
X59703Y452804D02*
X138443Y531544D01*
X59703Y468552D02*
X122695Y531544D01*
X59703Y484300D02*
X106947Y531544D01*
X59703Y500048D02*
X91199Y531544D01*
X59703Y515796D02*
X75451Y531544D01*
X59703D02*
X351042D01*
Y311072*
X59703*
Y531544*
X61672Y114537D02*
X81357D01*
Y59419*
X61672*
Y114537*
X61948Y62800D02*
X59348D01*
Y63400*
X61948*
Y62800*
G36*
X59348*
Y63400*
X61948*
Y62800*
G37*
X63148Y61537D02*
Y65287D01*
X65335*
X65961Y64975*
X66273Y64350*
X65961Y63725*
X65335Y63413*
X63148*
X65335D02*
X66273Y61537D01*
X68773D02*
X70023D01*
X69398D02*
Y65287D01*
X68773Y64663*
X73461Y61850D02*
X74085Y61537D01*
X74711*
X75335Y61850*
X75648Y62475*
Y64350*
X75335Y64975*
X74711Y65287*
X74085*
X73461Y64975*
X73148Y64350*
Y62475*
X73461Y61850*
X75335Y64975*
X78773Y61537D02*
X80023D01*
X79398D02*
Y65287D01*
X78773Y64663*
X67699Y149285D02*
Y161915D01*
X73597*
Y149285*
X71140*
Y149777*
X70156*
Y149285*
X67699*
Y169285D02*
Y181915D01*
X73597*
Y169285*
X71140*
Y169777*
X70156*
Y169285*
X67699*
Y189285D02*
Y201915D01*
X73597*
Y189285*
X71140*
Y189777*
X70156*
Y189285*
X67699*
X70594Y103317D02*
X69969Y103004D01*
X69656Y102379*
Y101129*
X69969Y100504*
X70594Y100191*
X71219Y100504*
X71531Y101129*
Y102379*
X71844Y103004*
X72469Y103317*
X73094Y103004*
X73406Y102379*
Y101129*
X73094Y100504*
X72469Y100191*
X69656Y98317D02*
X73406D01*
Y96441*
X73094Y95817*
X72781Y95504*
X72156Y95191*
X70906*
X70281Y95504*
X69969Y95817*
X69656Y96441*
Y98317*
X70281Y85191D02*
X69969Y85504D01*
X69656Y86129*
Y87067*
X69969Y87691*
X70281Y88004*
X70906Y88317*
X72156*
X72781Y88004*
X73094Y87691*
X73406Y87067*
Y86129*
X73094Y85504*
X72781Y85191*
X69656Y83317D02*
X73406Y81754D01*
X69656Y80191*
X71219Y82691D02*
Y80817D01*
X69656Y78317D02*
X73406D01*
Y76129*
X73094Y75504*
X72469Y75191*
X71844Y75504*
X71531Y76129*
Y78317*
Y76129D02*
X69656Y75191D01*
Y73317D02*
X73406D01*
Y71441*
X73094Y70817*
X72781Y70504*
X72156Y70191*
X70906*
X70281Y70504*
X69969Y70817*
X69656Y71441*
Y73317*
X71514Y322883D02*
X124664D01*
Y354379*
X71514*
Y322883*
X73483Y349411D02*
Y353161D01*
X75670*
X76295Y352849*
X76608Y352224*
X76295Y351599*
X75670Y351286*
X73483*
X78483Y350349D02*
X78795Y349724D01*
X79420Y349411*
X80670*
X81295Y349724*
X81608Y350349*
X81295Y350974*
X80670Y351286*
X79420*
X78795Y351599*
X78483Y352224*
X78795Y352849*
X79420Y353161*
X80670*
X81295Y352849*
X81608Y352224*
X83483Y353161D02*
Y350349D01*
X83795Y349724*
X84420Y349411*
X85670*
X86295Y349724*
X86608Y350349*
Y353161*
X89108Y349411D02*
X90358D01*
X89733D02*
Y353161D01*
X89108Y352536*
X93795Y349724D02*
X94420Y349411D01*
X95045*
X95670Y349724*
X95983Y350349*
Y352224*
X95670Y352849*
X95045Y353161*
X94420*
X93795Y352849*
X93483Y352224*
Y350349*
X93795Y349724*
X95670Y352849*
X99108Y349411D02*
X100358D01*
X99733D02*
Y353161D01*
X99108Y352536*
X75451Y311072D02*
X87262Y322883D01*
X80648Y479037D02*
Y482787D01*
X83773*
X83148Y480913D02*
X80648D01*
X86273Y479037D02*
X87523D01*
X86898D02*
Y482787D01*
X86273Y482163*
X90961Y479350D02*
X91585Y479037D01*
X92211*
X92835Y479350*
X93148Y479975*
Y481850*
X92835Y482475*
X92211Y482787*
X91585*
X90961Y482475*
X90648Y481850*
Y479975*
X90961Y479350*
X92835Y482475*
X96273Y479037D02*
X97523D01*
X96898D02*
Y482787D01*
X96273Y482163*
X85648Y149037D02*
Y152787D01*
X87835*
X88461Y152475*
X88773Y151850*
X88461Y151225*
X87835Y150913*
X85648*
X87835D02*
X88773Y149037D01*
X91273D02*
X92523D01*
X91898D02*
Y152787D01*
X91273Y152163*
X95961Y149350D02*
X96585Y149037D01*
X97211*
X97835Y149350*
X98148Y149975*
Y151850*
X97835Y152475*
X97211Y152787*
X96585*
X95961Y152475*
X95648Y151850*
Y149975*
X95961Y149350*
X97835Y152475*
X100648Y149037D02*
X103148Y152787D01*
X100648*
X85648Y155287D02*
Y156537D01*
X85961Y157163*
X86273Y157475*
X86898Y157787*
X87523*
X88148Y157475*
X88461Y157163*
X88773Y156537*
Y155287*
X88461Y154663*
X88148Y154350*
X87523Y154037*
X86898*
X86273Y154350*
X85961Y154663*
X85648Y155287*
X87835Y154975D02*
X88773Y154037D01*
X91273D02*
X92523D01*
X91898D02*
Y157787D01*
X91273Y157163*
X95961Y154350D02*
X96585Y154037D01*
X97211*
X97835Y154350*
X98148Y154975*
Y156850*
X97835Y157475*
X97211Y157787*
X96585*
X95961Y157475*
X95648Y156850*
Y154975*
X95961Y154350*
X97835Y157475*
X100961Y154350D02*
X101585Y154037D01*
X102211*
X102835Y154350*
X103148Y154975*
X102835Y155600*
X102211Y155913*
X101585*
X102211D02*
X102835Y156225D01*
X103148Y156850*
X102835Y157475*
X102211Y157787*
X101585*
X100961Y157475*
X85648Y159037D02*
Y162787D01*
X87835*
X88461Y162475*
X88773Y161850*
X88461Y161225*
X87835Y160913*
X85648*
X87835D02*
X88773Y159037D01*
X91273D02*
X92523D01*
X91898D02*
Y162787D01*
X91273Y162163*
X95961Y159350D02*
X96585Y159037D01*
X97211*
X97835Y159350*
X98148Y159975*
Y161850*
X97835Y162475*
X97211Y162787*
X96585*
X95961Y162475*
X95648Y161850*
Y159975*
X95961Y159350*
X97835Y162475*
X101585Y160913D02*
X102211D01*
X102835Y161225*
X103148Y161850*
X102835Y162475*
X102211Y162787*
X101585*
X100961Y162475*
X100648Y161850*
X100961Y161225*
X101585Y160913*
X100961Y160600*
X100648Y159975*
X100961Y159350*
X101585Y159037*
X102211*
X102835Y159350*
X103148Y159975*
X102835Y160600*
X102211Y160913*
X85648Y169037D02*
Y172787D01*
X87835*
X88461Y172475*
X88773Y171850*
X88461Y171225*
X87835Y170913*
X85648*
X87835D02*
X88773Y169037D01*
X91273D02*
X92523D01*
X91898D02*
Y172787D01*
X91273Y172163*
X96273Y169037D02*
X97523D01*
X96898D02*
Y172787D01*
X96273Y172163*
X100961Y169350D02*
X101585Y169037D01*
X102211*
X102835Y169350*
X103148Y169975*
Y171850*
X102835Y172475*
X102211Y172787*
X101585*
X100961Y172475*
X100648Y171850*
Y169975*
X100961Y169350*
X102835Y172475*
X85648Y175287D02*
Y176537D01*
X85961Y177163*
X86273Y177475*
X86898Y177787*
X87523*
X88148Y177475*
X88461Y177163*
X88773Y176537*
Y175287*
X88461Y174663*
X88148Y174350*
X87523Y174037*
X86898*
X86273Y174350*
X85961Y174663*
X85648Y175287*
X87835Y174975D02*
X88773Y174037D01*
X91273D02*
X92523D01*
X91898D02*
Y177787D01*
X91273Y177163*
X95961Y174350D02*
X96585Y174037D01*
X97211*
X97835Y174350*
X98148Y174975*
Y176850*
X97835Y177475*
X97211Y177787*
X96585*
X95961Y177475*
X95648Y176850*
Y174975*
X95961Y174350*
X97835Y177475*
X102211Y174037D02*
Y177787D01*
X100648Y175287*
X103148*
X85648Y179037D02*
Y182787D01*
X87835*
X88461Y182475*
X88773Y181850*
X88461Y181225*
X87835Y180913*
X85648*
X87835D02*
X88773Y179037D01*
X91273D02*
X92523D01*
X91898D02*
Y182787D01*
X91273Y182163*
X96273Y179037D02*
X97523D01*
X96898D02*
Y182787D01*
X96273Y182163*
X101273Y179037D02*
X102523D01*
X101898D02*
Y182787D01*
X101273Y182163*
X85648Y189037D02*
Y192787D01*
X87835*
X88461Y192475*
X88773Y191850*
X88461Y191225*
X87835Y190913*
X85648*
X87835D02*
X88773Y189037D01*
X91273D02*
X92523D01*
X91898D02*
Y192787D01*
X91273Y192163*
X96273Y189037D02*
X97523D01*
X96898D02*
Y192787D01*
X96273Y192163*
X100961Y189350D02*
X101585Y189037D01*
X102211*
X102835Y189350*
X103148Y189975*
X102835Y190600*
X102211Y190913*
X101585*
X102211D02*
X102835Y191225D01*
X103148Y191850*
X102835Y192475*
X102211Y192787*
X101585*
X100961Y192475*
X85648Y195287D02*
Y196537D01*
X85961Y197163*
X86273Y197475*
X86898Y197787*
X87523*
X88148Y197475*
X88461Y197163*
X88773Y196537*
Y195287*
X88461Y194663*
X88148Y194350*
X87523Y194037*
X86898*
X86273Y194350*
X85961Y194663*
X85648Y195287*
X87835Y194975D02*
X88773Y194037D01*
X91273D02*
X92523D01*
X91898D02*
Y197787D01*
X91273Y197163*
X95961Y194350D02*
X96585Y194037D01*
X97211*
X97835Y194350*
X98148Y194975*
Y196850*
X97835Y197475*
X97211Y197787*
X96585*
X95961Y197475*
X95648Y196850*
Y194975*
X95961Y194350*
X97835Y197475*
X100648Y194350D02*
X101273Y194037D01*
X102211*
X102835Y194350*
X103148Y194975*
Y195287*
X102835Y195913*
X102211Y196225*
X100648*
Y197787*
X103148*
X85648Y199037D02*
Y202787D01*
X87835*
X88461Y202475*
X88773Y201850*
X88461Y201225*
X87835Y200913*
X85648*
X87835D02*
X88773Y199037D01*
X91273D02*
X92523D01*
X91898D02*
Y202787D01*
X91273Y202163*
X96273Y199037D02*
X97523D01*
X96898D02*
Y202787D01*
X96273Y202163*
X102211Y199037D02*
Y202787D01*
X100648Y200287*
X103148*
X91199Y311072D02*
X103010Y322883D01*
X95136Y46033D02*
G75*
G03Y22411J-11811D01*
G01*
G75*
G03Y46033J11811*
G01*
Y136584D02*
G75*
G03Y112962J-11811D01*
G01*
G75*
G03Y136584J11811*
G01*
X106554Y16506D02*
X144349D01*
Y20443*
X106554*
Y16506*
X106947Y311072D02*
X118758Y322883D01*
X116750Y24726D02*
Y28476D01*
Y26602D02*
X119876D01*
Y24726D02*
Y28476D01*
X121750Y24726D02*
Y28476D01*
X123626*
X124250Y28164*
X124563Y27852*
X124876Y27226*
Y25976*
X124563Y25352*
X124250Y25039*
X123626Y24726*
X121750*
X126750D02*
Y28476D01*
X128313Y26602*
X129876Y28476*
Y24726*
X132688D02*
X133938D01*
X133313D02*
Y28476D01*
X132688D02*
X133938D01*
X118758Y370127D02*
X103010Y354379D01*
X118758Y385875D02*
X87262Y354379D01*
X118758Y472489D02*
X291987D01*
Y370127*
X118758*
Y472489*
X119014Y347883D02*
X114014Y342883D01*
X119014*
X111514Y335383*
X123773Y152163D02*
X123461Y151850D01*
X122835Y151537*
X121898*
X121273Y151850*
X120961Y152163*
X120648Y152787*
Y154037*
X120961Y154663*
X121273Y154975*
X121898Y155287*
X122835*
X123461Y154975*
X123773Y154663*
X126273Y151537D02*
X127523D01*
X126898D02*
Y155287D01*
X126273Y154663*
X130961Y151850D02*
X131585Y151537D01*
X132211*
X132835Y151850*
X133148Y152475*
Y154350*
X132835Y154975*
X132211Y155287*
X131585*
X130961Y154975*
X130648Y154350*
Y152475*
X130961Y151850*
X132835Y154975*
X135648Y152475D02*
X135961Y153100D01*
X136585Y153413*
X137211*
X137835Y153100*
X138148Y152475*
X137835Y151850*
X137211Y151537*
X136585*
X135961Y151850*
X135648Y152475*
Y153413*
X135961Y154350*
X136585Y154975*
X137211Y155287*
X123773Y157163D02*
X123461Y156850D01*
X122835Y156537*
X121898*
X121273Y156850*
X120961Y157163*
X120648Y157787*
Y159037*
X120961Y159663*
X121273Y159975*
X121898Y160287*
X122835*
X123461Y159975*
X123773Y159663*
X126273Y156537D02*
X127523D01*
X126898D02*
Y160287D01*
X126273Y159663*
X130961Y156850D02*
X131585Y156537D01*
X132211*
X132835Y156850*
X133148Y157475*
Y159350*
X132835Y159975*
X132211Y160287*
X131585*
X130961Y159975*
X130648Y159350*
Y157475*
X130961Y156850*
X132835Y159975*
X135648Y156537D02*
X138148Y160287D01*
X135648*
X122695Y311072D02*
X181750Y370127D01*
X126632Y472489D02*
X185687Y531544D01*
X129048Y141800D02*
Y144400D01*
X129648*
Y141800*
X129048*
G36*
Y144400*
X129648*
Y141800*
X129048*
G37*
Y146800D02*
Y149400D01*
X129648*
Y146800*
X129048*
G36*
Y149400*
X129648*
Y146800*
X129048*
G37*
X134506Y370127D02*
X118758Y354379D01*
X138443Y311072D02*
X197498Y370127D01*
X150254D02*
X124664Y344537D01*
X153148Y28100D02*
Y93100D01*
X155648*
X158148Y90600*
X160648Y93100*
X163148*
Y28100*
X153148*
X154191Y311072D02*
X213246Y370127D01*
X166002D02*
X124664Y328789D01*
X169939Y311072D02*
X228994Y370127D01*
X173148Y25287D02*
Y22475D01*
X173461Y21850*
X174085Y21537*
X175335*
X175961Y21850*
X176273Y22475*
Y25287*
X178773Y21537D02*
X180023D01*
X179398D02*
Y25287D01*
X178773Y24663*
X183461Y21850D02*
X184085Y21537D01*
X184711*
X185335Y21850*
X185648Y22475*
Y24350*
X185335Y24975*
X184711Y25287*
X184085*
X183461Y24975*
X183148Y24350*
Y22475*
X183461Y21850*
X185335Y24975*
X188461Y21850D02*
X189085Y21537D01*
X189711*
X190335Y21850*
X190648Y22475*
X190335Y23100*
X189711Y23413*
X189085*
X189711D02*
X190335Y23725D01*
X190648Y24350*
X190335Y24975*
X189711Y25287*
X189085*
X188461Y24975*
X185687Y311072D02*
X244743Y370127D01*
X190311Y79975D02*
X189998Y80287D01*
X189685Y80913*
Y81850*
X189998Y82475*
X190311Y82787*
X190935Y83100*
X192185*
X192811Y82787*
X193123Y82475*
X193435Y81850*
Y80913*
X193123Y80287*
X192811Y79975*
X189685Y77475D02*
Y76225D01*
Y76850D02*
X193435D01*
X192811Y77475*
X189998Y72787D02*
X189685Y72163D01*
Y71537*
X189998Y70913*
X190623Y70600*
X192498*
X193123Y70913*
X193435Y71537*
Y72163*
X193123Y72787*
X192498Y73100*
X190623*
X189998Y72787*
X193123Y70913*
X189685Y66537D02*
X193435D01*
X190935Y68100*
Y65600*
X190548Y98400D02*
X193148D01*
Y97800*
X190548*
Y98400*
G36*
X193148*
Y97800*
X190548*
Y98400*
G37*
X193773Y142163D02*
X193461Y141850D01*
X192835Y141537*
X191898*
X191273Y141850*
X190961Y142163*
X190648Y142787*
Y144037*
X190961Y144663*
X191273Y144975*
X191898Y145287*
X192835*
X193461Y144975*
X193773Y144663*
X195648Y142787D02*
Y144037D01*
X195961Y144663*
X196273Y144975*
X196898Y145287*
X197523*
X198148Y144975*
X198461Y144663*
X198773Y144037*
Y142787*
X198461Y142163*
X198148Y141850*
X197523Y141537*
X196898*
X196273Y141850*
X195961Y142163*
X195648Y142787*
X200648Y141537D02*
Y145287D01*
X203773Y141537*
Y145287*
X205648Y141537D02*
Y145287D01*
X208773Y141537*
Y145287*
X211273Y141537D02*
X212523D01*
X211898D02*
Y145287D01*
X211273Y144663*
X215961Y141850D02*
X216585Y141537D01*
X217211*
X217835Y141850*
X218148Y142475*
Y144350*
X217835Y144975*
X217211Y145287*
X216585*
X215961Y144975*
X215648Y144350*
Y142475*
X215961Y141850*
X217835Y144975*
X223148Y141537D02*
X220648D01*
X222835Y143725*
X223148Y144350*
X222835Y144975*
X222211Y145287*
X221273*
X220648Y144975*
X195311Y79975D02*
X194998Y80287D01*
X194685Y80913*
Y81850*
X194998Y82475*
X195311Y82787*
X195935Y83100*
X197185*
X197811Y82787*
X198123Y82475*
X198435Y81850*
Y80913*
X198123Y80287*
X197811Y79975*
X194685Y77475D02*
Y76225D01*
Y76850D02*
X198435D01*
X197811Y77475*
X194998Y72787D02*
X194685Y72163D01*
Y71537*
X194998Y70913*
X195623Y70600*
X197498*
X198123Y70913*
X198435Y71537*
Y72163*
X198123Y72787*
X197498Y73100*
X195623*
X194998Y72787*
X198123Y70913*
X194998Y68100D02*
X194685Y67475D01*
Y66537*
X194998Y65913*
X195623Y65600*
X195935*
X196561Y65913*
X196873Y66537*
Y68100*
X198435*
Y65600*
X195548Y98400D02*
X198148D01*
Y97800*
X195548*
Y98400*
G36*
X198148*
Y97800*
X195548*
Y98400*
G37*
X200648Y40287D02*
Y37475D01*
X200961Y36850*
X201585Y36537*
X202835*
X203461Y36850*
X203773Y37475*
Y40287*
X206273Y36537D02*
X207523D01*
X206898D02*
Y40287D01*
X206273Y39663*
X210961Y36850D02*
X211585Y36537D01*
X212211*
X212835Y36850*
X213148Y37475*
Y39350*
X212835Y39975*
X212211Y40287*
X211585*
X210961Y39975*
X210648Y39350*
Y37475*
X210961Y36850*
X212835Y39975*
X218148Y36537D02*
X215648D01*
X217835Y38725*
X218148Y39350*
X217835Y39975*
X217211Y40287*
X216273*
X215648Y39975*
X201435Y311072D02*
X260491Y370127D01*
X201435Y531544D02*
X142380Y472489D01*
X203148Y51537D02*
Y55287D01*
X205335*
X205961Y54975*
X206273Y54350*
X205961Y53725*
X205335Y53413*
X203148*
X205335D02*
X206273Y51537D01*
X208773D02*
X210023D01*
X209398D02*
Y55287D01*
X208773Y54663*
X213773Y51537D02*
X215023D01*
X214398D02*
Y55287D01*
X213773Y54663*
X219085Y53413D02*
X219711D01*
X220335Y53725*
X220648Y54350*
X220335Y54975*
X219711Y55287*
X219085*
X218461Y54975*
X218148Y54350*
X218461Y53725*
X219085Y53413*
X218461Y53100*
X218148Y52475*
X218461Y51850*
X219085Y51537*
X219711*
X220335Y51850*
X220648Y52475*
X220335Y53100*
X219711Y53413*
X203148Y64037D02*
Y67787D01*
X205335*
X205961Y67475*
X206273Y66850*
X205961Y66225*
X205335Y65913*
X203148*
X205335D02*
X206273Y64037D01*
X208773D02*
X210023D01*
X209398D02*
Y67787D01*
X208773Y67163*
X213773Y64037D02*
X215023D01*
X214398D02*
Y67787D01*
X213773Y67163*
X218148Y64037D02*
X220648Y67787D01*
X218148*
X213773Y92163D02*
X213461Y91850D01*
X212835Y91537*
X211898*
X211273Y91850*
X210961Y92163*
X210648Y92787*
Y94037*
X210961Y94663*
X211273Y94975*
X211898Y95287*
X212835*
X213461Y94975*
X213773Y94663*
X216273Y91537D02*
X217523D01*
X216898D02*
Y95287D01*
X216273Y94663*
X221273Y91537D02*
X222523D01*
X221898D02*
Y95287D01*
X221273Y94663*
X225648Y92475D02*
X225961Y93100D01*
X226585Y93413*
X227211*
X227835Y93100*
X228148Y92475*
X227835Y91850*
X227211Y91537*
X226585*
X225961Y91850*
X225648Y92475*
Y93413*
X225961Y94350*
X226585Y94975*
X227211Y95287*
X210648Y96537D02*
Y100287D01*
X212835*
X213461Y99975*
X213773Y99350*
X213461Y98725*
X212835Y98413*
X210648*
X212835D02*
X213773Y96537D01*
X216273D02*
X217523D01*
X216898D02*
Y100287D01*
X216273Y99663*
X221273Y96537D02*
X222523D01*
X221898D02*
Y100287D01*
X221273Y99663*
X225648Y97475D02*
X225961Y98100D01*
X226585Y98413*
X227211*
X227835Y98100*
X228148Y97475*
X227835Y96850*
X227211Y96537*
X226585*
X225961Y96850*
X225648Y97475*
Y98413*
X225961Y99350*
X226585Y99975*
X227211Y100287*
X212848Y69300D02*
Y71900D01*
X213448*
Y69300*
X212848*
G36*
Y71900*
X213448*
Y69300*
X212848*
G37*
X213448Y59400D02*
Y56800D01*
X212848*
Y59400*
X213448*
G36*
Y56800*
X212848*
Y59400*
X213448*
G37*
X217183Y311072D02*
X276239Y370127D01*
X217183Y531544D02*
X158128Y472489D01*
X222148Y75100D02*
Y36100D01*
X254148*
Y75100*
X222148*
X224664Y16506D02*
X264034D01*
Y20443*
X224664*
Y16506*
X225848Y84300D02*
Y86900D01*
X226448*
Y84300*
X225848*
G36*
Y86900*
X226448*
Y84300*
X225848*
G37*
X226448Y81900D02*
Y79300D01*
X225848*
Y81900*
X226448*
G36*
Y79300*
X225848*
Y81900*
X226448*
G37*
X232931Y311072D02*
X351042Y429182D01*
X232931Y531544D02*
X173876Y472489D01*
X242648Y75100D02*
G75*
G02X238148Y70600I-4500D01*
G01*
G75*
G02X233648Y75100J4500*
G01*
X251273Y92163D02*
X250961Y91850D01*
X250335Y91537*
X249398*
X248773Y91850*
X248461Y92163*
X248148Y92787*
Y94037*
X248461Y94663*
X248773Y94975*
X249398Y95287*
X250335*
X250961Y94975*
X251273Y94663*
X253773Y91537D02*
X255023D01*
X254398D02*
Y95287D01*
X253773Y94663*
X258773Y91537D02*
X260023D01*
X259398D02*
Y95287D01*
X258773Y94663*
X264711Y91537D02*
Y95287D01*
X263148Y92787*
X265648*
X251273Y97163D02*
X250961Y96850D01*
X250335Y96537*
X249398*
X248773Y96850*
X248461Y97163*
X248148Y97787*
Y99037*
X248461Y99663*
X248773Y99975*
X249398Y100287*
X250335*
X250961Y99975*
X251273Y99663*
X253773Y96537D02*
X255023D01*
X254398D02*
Y100287D01*
X253773Y99663*
X258773Y96537D02*
X260023D01*
X259398D02*
Y100287D01*
X258773Y99663*
X263461Y96850D02*
X264085Y96537D01*
X264711*
X265335Y96850*
X265648Y97475*
X265335Y98100*
X264711Y98413*
X264085*
X264711D02*
X265335Y98725D01*
X265648Y99350*
X265335Y99975*
X264711Y100287*
X264085*
X263461Y99975*
X248680Y311072D02*
X351042Y413434D01*
X248680Y531544D02*
X189624Y472489D01*
X250460Y81900D02*
Y79300D01*
X249860*
Y81900*
X250460*
G36*
Y79300*
X249860*
Y81900*
X250460*
G37*
Y86900D02*
Y84300D01*
X249860*
Y86900*
X250460*
G36*
Y84300*
X249860*
Y86900*
X250460*
G37*
X252617Y472489D02*
X286081Y505954D01*
X258325Y237549D02*
X342971D01*
Y168651*
X258325*
Y237549*
X261667Y242163D02*
X261354Y241850D01*
X260729Y241537*
X259792*
X259167Y241850*
X258854Y242163*
X258542Y242787*
Y244037*
X258854Y244663*
X259167Y244975*
X259792Y245287*
X260729*
X261354Y244975*
X261667Y244663*
X263542Y242787D02*
Y244037D01*
X263854Y244663*
X264167Y244975*
X264792Y245287*
X265417*
X266042Y244975*
X266354Y244663*
X266667Y244037*
Y242787*
X266354Y242163*
X266042Y241850*
X265417Y241537*
X264792*
X264167Y241850*
X263854Y242163*
X263542Y242787*
X268542Y241537D02*
Y245287D01*
X271667Y241537*
Y245287*
X273542Y241537D02*
Y245287D01*
X276667Y241537*
Y245287*
X279167Y241537D02*
X280417D01*
X279792D02*
Y245287D01*
X279167Y244663*
X283854Y241850D02*
X284479Y241537D01*
X285104*
X285729Y241850*
X286042Y242475*
Y244350*
X285729Y244975*
X285104Y245287*
X284479*
X283854Y244975*
X283542Y244350*
Y242475*
X283854Y241850*
X285729Y244975*
X290104Y241537D02*
Y245287D01*
X288542Y242787*
X291042*
X262026Y28476D02*
Y25664D01*
X262339Y25039*
X262963Y24726*
X264213*
X264839Y25039*
X265151Y25664*
Y28476*
X267026Y25664D02*
X267339Y25039D01*
X267963Y24726*
X269213*
X269839Y25039*
X270151Y25664*
X269839Y26289*
X269213Y26602*
X267963*
X267339Y26914*
X267026Y27539*
X267339Y28164*
X267963Y28476*
X269213*
X269839Y28164*
X270151Y27539*
X274213Y26602D02*
X274839Y26289D01*
X275151Y25664*
X274839Y25039*
X274213Y24726*
X272026*
Y28476*
X274213*
X274839Y28164*
X275151Y27539*
X274839Y26914*
X274213Y26602*
X272026*
X264428Y311072D02*
X351042Y397686D01*
X264428Y531544D02*
X205372Y472489D01*
X266987Y37726D02*
X284309D01*
X267111Y86230D02*
Y64970D01*
X276560*
Y86230*
X267111*
X268365Y472489D02*
X286081Y490206D01*
X274270Y16506D02*
X313640D01*
Y20443*
X274270*
Y16506*
X275648Y57458D02*
G75*
G03Y33742J-11858D01*
G01*
G75*
G03Y57458J11858*
G01*
Y89037D02*
Y92787D01*
X277523*
X278148Y92475*
X278461Y92163*
X278773Y91537*
Y90287*
X278461Y89663*
X278148Y89350*
X277523Y89037*
X275648*
X281273D02*
X282523D01*
X281898D02*
Y92787D01*
X281273Y92163*
X285961Y89350D02*
X286585Y89037D01*
X287211*
X287835Y89350*
X288148Y89975*
Y91850*
X287835Y92475*
X287211Y92787*
X286585*
X285961Y92475*
X285648Y91850*
Y89975*
X285961Y89350*
X287835Y92475*
X291273Y89037D02*
X292523D01*
X291898D02*
Y92787D01*
X291273Y92163*
X276560Y79439D02*
X267111D01*
X280176Y311072D02*
X351042Y381938D01*
X280176Y531544D02*
X221120Y472489D01*
X281848Y75900D02*
X284448D01*
Y75300*
X281848*
Y75900*
G36*
X284448*
Y75300*
X281848*
Y75900*
G37*
X282774Y306761D02*
Y289439D01*
X284113Y472489D02*
X301829Y490206D01*
X286081D02*
X339231D01*
Y519733*
X286081*
Y490206*
X288148Y74037D02*
Y77787D01*
X290335*
X290961Y77475*
X291273Y76850*
X290961Y76225*
X290335Y75913*
X288148*
X290335D02*
X291273Y74037D01*
X293773D02*
X295023D01*
X294398D02*
Y77787D01*
X293773Y77163*
X298773Y74037D02*
X300023D01*
X299398D02*
Y77787D01*
X298773Y77163*
X303148Y74350D02*
X303773Y74037D01*
X304711*
X305335Y74350*
X305648Y74975*
Y75287*
X305335Y75913*
X304711Y76225*
X303148*
Y77787*
X305648*
X293773Y44663D02*
X293461Y44350D01*
X292835Y44037*
X291898*
X291273Y44350*
X290961Y44663*
X290648Y45287*
Y46537*
X290961Y47163*
X291273Y47475*
X291898Y47787*
X292835*
X293461Y47475*
X293773Y47163*
X296273Y44037D02*
X297523D01*
X296898D02*
Y47787D01*
X296273Y47163*
X301273Y44037D02*
X302523D01*
X301898D02*
Y47787D01*
X301273Y47163*
X305648Y44350D02*
X306273Y44037D01*
X307211*
X307835Y44350*
X308148Y44975*
Y45287*
X307835Y45913*
X307211Y46225*
X305648*
Y47787*
X308148*
X291987Y448867D02*
X333325Y490206D01*
X291987Y464615D02*
X317577Y490206D01*
X295924Y311072D02*
X351042Y366190D01*
X295924Y531544D02*
X236869Y472489D01*
X302506Y298100D02*
G75*
G03X278790I-11858D01*
G01*
G75*
G03X302506I11858*
G01*
X308773Y297163D02*
X308461Y296850D01*
X307835Y296537*
X306898*
X306273Y296850*
X305961Y297163*
X305648Y297787*
Y299037*
X305961Y299663*
X306273Y299975*
X306898Y300287*
X307835*
X308461Y299975*
X308773Y299663*
X311273Y296537D02*
X312523D01*
X311898D02*
Y300287D01*
X311273Y299663*
X315961Y296850D02*
X316585Y296537D01*
X317211*
X317835Y296850*
X318148Y297475*
Y299350*
X317835Y299975*
X317211Y300287*
X316585*
X315961Y299975*
X315648Y299350*
Y297475*
X315961Y296850*
X317835Y299975*
X320961Y296850D02*
X321585Y296537D01*
X322211*
X322835Y296850*
X323148Y297475*
X322835Y298100*
X322211Y298413*
X321585*
X322211D02*
X322835Y298725D01*
X323148Y299350*
X322835Y299975*
X322211Y300287*
X321585*
X320961Y299975*
X308448Y151900D02*
Y149300D01*
X307848*
Y151900*
X308448*
G36*
Y149300*
X307848*
Y151900*
X308448*
G37*
X311672Y311072D02*
X351042Y350442D01*
X311672Y531544D02*
X299861Y519733D01*
X318148Y149037D02*
Y152787D01*
X320335*
X320961Y152475*
X321273Y151850*
X320961Y151225*
X320335Y150913*
X318148*
X320335D02*
X321273Y149037D01*
X323773D02*
X325023D01*
X324398D02*
Y152787D01*
X323773Y152163*
X328461Y149350D02*
X329085Y149037D01*
X329711*
X330335Y149350*
X330648Y149975*
Y151850*
X330335Y152475*
X329711Y152787*
X329085*
X328461Y152475*
X328148Y151850*
Y149975*
X328461Y149350*
X330335Y152475*
X333148Y149350D02*
X333773Y149037D01*
X334711*
X335335Y149350*
X335648Y149975*
Y150287*
X335335Y150913*
X334711Y151225*
X333148*
Y152787*
X335648*
X323483Y46033D02*
G75*
G03Y22411J-11811D01*
G01*
G75*
G03Y46033J11811*
G01*
Y136584D02*
G75*
G03Y112962J-11811D01*
G01*
G75*
G03Y136584J11811*
G01*
X325451Y20443D02*
G75*
G03X337262Y32254J11811D01*
G01*
Y126742*
G75*
G03X325451Y138553I-11811*
G01*
X93168*
G75*
G03X81357Y126742J-11811*
G01*
Y32254*
G75*
G03X93168Y20443I11811*
G01*
X325451*
X327420Y311072D02*
X351042Y334694D01*
X327420Y531544D02*
X315609Y519733D01*
X334231Y514733D02*
X329231Y509733D01*
X334231*
X326731Y502233*
X337262Y46033D02*
X349073D01*
Y112962*
X337262*
Y46033*
X341935Y89561D02*
X341622Y89874D01*
X341310Y90499*
Y91437*
X341622Y92061*
X341935Y92374*
X342560Y92687*
X343810*
X344435Y92374*
X344748Y92061*
X345060Y91437*
Y90499*
X344748Y89874*
X344435Y89561*
X341310Y87687D02*
X345060Y86124D01*
X341310Y84561*
X342872Y87061D02*
Y85187D01*
X341310Y82687D02*
X345060D01*
X343185Y81124*
X345060Y79561*
X341310*
Y77687D02*
X345060D01*
Y74561*
X343185Y75187D02*
Y77687D01*
X341310D02*
Y74561D01*
Y72687D02*
X345060D01*
Y70499*
X344748Y69874*
X344122Y69561*
X343498Y69874*
X343185Y70499*
Y72687*
Y70499D02*
X341310Y69561D01*
Y67687D02*
X345060Y66124D01*
X341310Y64561*
X342872Y67061D02*
Y65187D01*
X343168Y311072D02*
X351042Y318946D01*
X343168Y531544D02*
X331357Y519733D01*
X351042Y444930D02*
X291987Y385875D01*
X351042Y460678D02*
X291987Y401623D01*
X351042Y476426D02*
X291987Y417371D01*
X351042Y492174D02*
X291987Y433119D01*
X351042Y507922D02*
X339231Y496111D01*
X351042Y523670D02*
X339231Y511859D01*
D02*
D12*
X46548Y145600D02*
Y205600D01*
X22948*
Y145600*
X46548*
X58148Y36500D02*
X28148D01*
Y12900*
X58148*
Y36500*
D02*
D109*
X16348Y600D02*
G75*
G03X600Y16348I-15748D01*
G01*
Y535840*
G75*
G03X16348Y551588J15748*
G01*
X339083*
G75*
G03X354831Y535840I15748*
G01*
Y16348*
G75*
G03X339083Y600J-15748*
G01*
X16348*
D02*
D125*
X76514Y329074D02*
Y343838D01*
Y336456D02*
X88817D01*
Y329074D02*
Y343838D01*
X96199D02*
X102351Y329074D01*
X108502Y343838*
X291731Y495924D02*
Y510688D01*
Y503306D02*
X304034D01*
Y495924D02*
Y510688D01*
X311416D02*
X317567Y495924D01*
X323719Y510688*
X0Y0D02*
M02*
